<?xml version="1.0" encoding="utf-8"?>
<!DOCTYPE svg PUBLIC "-//W3C//DTD SVG 1.0//EN" "http://www.w3.org/TR/2001/REC-SVG-20010904/DTD/svg10.dtd">
<svg version="1.0" xmlns="http://www.w3.org/2000/svg" width="1000px" height="509px" viewBox="0 0 1000 509" preserveAspectRatio="xMidYMid meet">
 <g fill="#ffffff">
  <path d="M792 483 c-4.7 -1.5 -10.4 -3.3 -12.7 -3.9 -5.6 -1.5 -5.6 -2.6 0.4 -20.8 5.6 -17 4 -16.2 22.6 -10.3 6.8 2.2 13.2 4 14.1 4 1.2 0 1.6 1 1.6 3.8 0 3.6 -2.4 12.5 -4 14.7 -0.4 0.6 -1.7 4.3 -2.9 8.3 l-2.2 7.2 -4.2 -0.1 c-2.3 0 -8 -1.3 -12.7 -2.9z"/>
  <path d="M774.3 457 c0.3 -1 0.2 -1.9 -0.2 -1.8 -1.4 0.3 -16.1 -4.6 -16.1 -5.3 0 -0.5 -0.7 -0.6 -1.5 -0.3 -0.8 0.4 -1.5 0.1 -1.5 -0.5 0 -0.6 -0.7 -0.8 -1.5 -0.5 -0.8 0.4 -1.5 0.1 -1.5 -0.5 0 -0.6 -0.7 -0.8 -1.5 -0.5 -0.8 0.4 -1.5 0.1 -1.5 -0.5 0 -0.6 -0.7 -0.8 -1.5 -0.5 -0.8 0.4 -1.5 0.1 -1.5 -0.5 0 -0.6 -0.7 -0.8 -1.5 -0.5 -0.8 0.4 -1.5 0.1 -1.5 -0.5 0 -0.6 -0.7 -0.8 -1.5 -0.5 -0.8 0.4 -1.5 0.1 -1.5 -0.5 0 -0.6 -0.7 -0.8 -1.5 -0.5 -0.8 0.4 -1.5 0.2 -1.5 -0.2 0 -0.5 -1 -1 -2.3 -1.1 -3.1 -0.3 -5 -0.8 -6.2 -1.4 -0.5 -0.4 -5.2 -1.9 -10.2 -3.4 -5.1 -1.6 -9.3 -3.2 -9.3 -3.7 0 -0.5 -0.5 -0.6 -1.1 -0.2 -0.6 0.3 -1.5 0 -2 -0.7 -0.7 -1.2 -0.9 -1.1 -0.9 0.1 -0.1 1.1 -0.4 1 -1.5 -0.4 -1.1 -1.4 -1.5 -1.6 -1.5 -0.5 -0.1 1 -0.5 0.9 -1.5 -0.5 -1.1 -1.4 -1.5 -1.6 -1.5 -0.5 -0.1 1 -0.5 0.9 -1.5 -0.5 -1.1 -1.4 -1.5 -1.6 -1.5 -0.5 -0.1 1 -0.5 0.9 -1.5 -0.5 -1.1 -1.4 -1.5 -1.6 -1.5 -0.5 -0.1 1.1 -0.3 1.1 -1.3 -0.2 -0.7 -0.9 -1.8 -1.4 -2.4 -1.2 -0.7 0.3 -1.3 0.1 -1.3 -0.4 0 -0.5 -0.8 -0.9 -1.7 -0.9 -2.8 -0.1 -25.8 -7.5 -26.1 -8.5 -0.2 -0.4 -1 -0.5 -1.8 -0.2 -0.8 0.3 -1.4 -0.1 -1.4 -0.8 0 -0.7 -0.3 -0.9 -0.7 -0.6 -0.3 0.4 -1.2 0.2 -2 -0.4 -1 -0.9 -1.3 -0.8 -1.3 0.2 0 0.8 -0.6 0.5 -1.5 -0.7 -1.1 -1.4 -1.4 -1.5 -1.5 -0.4 0 1.2 -0.2 1.3 -0.9 0.1 -0.5 -0.8 -1.4 -1 -2.1 -0.6 -0.9 0.6 -1.1 0.4 -0.5 -0.5 0.6 -1 0.1 -1.1 -2.1 -0.6 -1.6 0.4 -2.4 0.3 -1.7 -0.2 1.5 -1 -24.2 -9.6 -26.3 -8.8 -1 0.4 -1.2 0.2 -0.8 -0.6 0.5 -0.7 0 -0.9 -1.4 -0.6 -1.4 0.4 -2 0.2 -1.5 -0.5 0.4 -0.6 -0.2 -0.8 -1.5 -0.5 -1.4 0.4 -2 0.2 -1.5 -0.5 0.4 -0.6 -0.2 -0.8 -1.5 -0.5 -1.4 0.4 -2 0.2 -1.5 -0.5 0.4 -0.6 -0.2 -0.8 -1.5 -0.5 -1.2 0.4 -2 0.2 -1.6 -0.3 0.3 -0.5 -0.3 -0.9 -1.2 -0.9 -1.6 0 -1.6 -0.2 0.2 -1.8 1.6 -1.5 2.5 -1.7 5.2 -0.9 1.7 0.6 3.2 1.4 3.2 1.9 0 0.4 1 0.8 2.2 0.8 2.9 0 19.2 5 19.8 6.1 0.7 1.1 8.7 3.9 11.2 3.9 1.8 0 14.6 3.9 25.2 7.6 2.8 1 4.2 1.1 4.7 0.3 0.4 -0.7 0.9 -0.5 1.3 0.6 0.3 0.9 1 1.4 1.5 1 0.5 -0.3 1.2 -0.1 1.6 0.5 0.4 0.6 1 0.8 1.5 0.5 0.5 -0.3 1.1 -0.1 1.5 0.5 0.4 0.6 1 0.8 1.5 0.5 0.5 -0.3 1.1 -0.1 1.5 0.5 0.4 0.6 1 0.8 1.5 0.5 0.5 -0.3 1.1 -0.1 1.5 0.4 0.3 0.6 1.2 0.8 2 0.4 0.8 -0.3 1.5 0 1.5 0.6 0 0.6 0.7 0.8 1.5 0.5 0.8 -0.4 1.5 -0.1 1.5 0.5 0 0.6 0.7 0.8 1.5 0.5 0.8 -0.4 1.5 -0.1 1.5 0.5 0 0.6 0.7 0.8 1.5 0.5 0.8 -0.4 1.5 -0.1 1.5 0.5 0 0.6 0.7 0.8 1.5 0.5 0.8 -0.4 1.5 -0.1 1.5 0.5 0 0.6 0.7 0.8 1.5 0.5 0.8 -0.4 1.5 -0.1 1.5 0.5 0 0.6 0.7 0.8 1.5 0.5 0.8 -0.4 1.5 -0.1 1.5 0.6 0 0.6 0.4 0.9 0.9 0.6 0.5 -0.4 2.2 -0.1 3.8 0.6 1.5 0.6 3.1 1.2 3.6 1.3 0.4 0.2 0.9 0.4 1.2 0.5 0.3 0.1 1 0.4 1.5 0.5 0.6 0.1 1.2 0.4 1.5 0.5 0.3 0.1 1 0.4 1.5 0.5 0.6 0.1 1.2 0.4 1.5 0.5 0.3 0.1 1 0.4 1.5 0.5 0.6 0.1 1.2 0.4 1.5 0.5 0.3 0.1 0.9 0.3 1.4 0.4 0.5 0 1.2 0.4 1.6 0.8 0.4 0.4 1.3 0.4 2.1 0.1 0.8 -0.3 1.4 0 1.4 0.6 0 0.6 0.7 0.8 1.5 0.5 0.8 -0.4 1.5 -0.1 1.5 0.5 0 0.6 0.7 0.8 1.5 0.5 0.8 -0.4 1.5 -0.1 1.5 0.5 0 0.6 0.7 0.8 1.5 0.5 0.8 -0.4 1.5 -0.1 1.5 0.6 0 0.6 0.4 0.9 0.9 0.6 0.5 -0.4 2.2 -0.1 3.8 0.6 1.5 0.6 3.1 1.2 3.6 1.3 0.4 0.2 0.9 0.4 1.2 0.5 0.3 0.1 1 0.4 1.5 0.5 0.6 0.1 1.2 0.4 1.5 0.5 0.3 0.1 1 0.4 1.5 0.5 0.6 0.1 1.2 0.4 1.5 0.5 0.3 0.1 1 0.4 1.5 0.5 0.6 0.1 1.2 0.4 1.5 0.5 0.3 0.1 1 0.4 1.5 0.5 0.6 0.1 1.2 0.4 1.5 0.5 0.3 0.1 0.9 0.3 1.4 0.4 0.5 0 1.2 0.4 1.6 0.8 0.4 0.4 1.3 0.4 2.1 0.1 0.8 -0.3 1.4 0 1.4 0.6 0 0.6 0.7 0.8 1.5 0.5 0.8 -0.4 1.5 -0.1 1.5 0.6 0 1 0.3 1 1.5 0 0.8 -0.7 1.5 -1.9 1.5 -2.6 0 -0.8 0.7 -1.4 1.5 -1.4 1.1 0 1.5 1.1 1.5 3.5 0 2.2 -0.6 3.8 -1.5 4.1 -0.8 0.4 -1.5 1.7 -1.5 3 0 1.5 -0.6 2.4 -1.6 2.4 -1.1 0 -1.5 -0.6 -1.1 -2z"/>
  <path d="M821 450 c0 -1.3 0.6 -1.9 1.8 -1.7 4.6 0.7 5.1 3.7 0.6 3.7 -1.7 0 -2.4 -0.5 -2.4 -2z"/>
  <path d="M808 447 c-0.8 -0.5 -3 -1 -4.7 -1 -2.8 0 -3.3 -0.4 -3.3 -2.4 0 -2.5 2.7 -3.2 4.3 -1.1 0.4 0.6 1 0 1.3 -1.2 0.4 -1.3 1.1 -2.3 1.6 -2.3 0.5 0 0.7 -0.4 0.4 -0.9 -0.5 -0.8 1.1 -6.4 3.1 -11.1 0.3 -0.8 0.5 -2.1 0.4 -2.7 -0.1 -0.7 0.3 -1.3 0.8 -1.3 0.6 0 0.8 -0.7 0.5 -1.5 -0.4 -0.8 -0.1 -1.5 0.6 -1.5 0.6 0 0.8 -0.5 0.4 -1.1 -0.3 -0.6 0 -1.5 0.7 -2 1.2 -0.7 1.2 -0.9 0 -0.9 -1.1 0 -0.9 -0.4 0.5 -1.5 1.4 -1 1.5 -1.4 0.5 -1.5 -1.1 0 -0.9 -0.4 0.5 -1.5 1.4 -1.1 1.5 -1.4 0.4 -1.5 -1.2 0 -1.3 -0.2 -0.1 -0.9 0.7 -0.5 1 -1.4 0.7 -2 -0.4 -0.6 -0.2 -1.1 0.4 -1.1 0.7 0 1 -0.7 0.6 -1.5 -0.3 -0.8 -0.1 -1.5 0.5 -1.5 0.6 0 0.8 -0.7 0.5 -1.6 -0.4 -1 -0.2 -1.3 0.6 -0.8 0.8 0.5 0.9 -0.2 0.4 -2.2 -0.5 -2.1 -0.4 -2.5 0.4 -1.4 0.8 1.3 1 1.3 1 -0.2 0 -1 -0.1 -2 -0.2 -2.1 -0.2 -0.2 0.3 -1.1 1.1 -2 1.1 -1.4 1.1 -1.7 0 -1.7 -0.8 0 -0.5 -0.6 0.7 -1.5 1.4 -1 1.5 -1.4 0.5 -1.5 -1.1 0 -0.9 -0.4 0.5 -1.5 1.4 -1 1.5 -1.4 0.5 -1.5 -1.1 0 -0.9 -0.4 0.5 -1.5 1.4 -1 1.5 -1.4 0.5 -1.5 -1.1 0 -0.9 -0.4 0.5 -1.5 1.4 -1 1.5 -1.4 0.5 -1.5 -1.1 0 -0.9 -0.4 0.5 -1.5 1.4 -1 1.5 -1.4 0.5 -1.5 -1.1 0 -0.9 -0.4 0.5 -1.5 1.4 -1 1.5 -1.4 0.5 -1.5 -1.1 0 -0.9 -0.4 0.5 -1.5 1.4 -1 1.5 -1.4 0.5 -1.5 -1.1 0 -0.9 -0.4 0.5 -1.5 1.4 -1 1.5 -1.4 0.5 -1.5 -1.1 0 -0.9 -0.4 0.5 -1.5 1.4 -1.1 1.5 -1.4 0.4 -1.5 -1 0 -1.1 -0.3 -0.4 -0.8 0.7 -0.4 1.7 -2.7 2.4 -5.2 0.7 -2.5 1.7 -5.1 2.2 -5.7 0.6 -0.7 0.7 -1.3 0.3 -1.3 -0.4 0 -0.2 -0.7 0.5 -1.5 0.7 -0.8 0.9 -1.5 0.5 -1.5 -0.4 0 -0.2 -0.7 0.5 -1.5 0.7 -0.8 0.9 -1.5 0.5 -1.5 -0.4 0 -0.2 -0.7 0.5 -1.5 0.7 -0.8 0.9 -1.5 0.5 -1.5 -0.4 0 -0.2 -0.7 0.5 -1.5 0.7 -0.8 0.9 -1.5 0.5 -1.5 -0.4 0 -0.2 -0.7 0.5 -1.5 0.7 -0.8 0.9 -1.5 0.5 -1.5 -0.4 0 -0.2 -0.7 0.5 -1.5 0.7 -0.8 0.9 -1.5 0.5 -1.5 -0.4 0 -0.2 -0.7 0.5 -1.5 0.7 -0.8 0.9 -1.5 0.5 -1.5 -0.4 0 -0.2 -0.7 0.5 -1.5 0.7 -0.8 0.9 -1.5 0.5 -1.5 -0.4 0 -0.2 -0.7 0.5 -1.5 0.7 -0.8 0.9 -1.5 0.5 -1.5 -0.4 0 -0.2 -0.7 0.5 -1.5 0.7 -0.8 1 -1.5 0.7 -1.5 -0.8 0 2.3 -10.2 3.5 -11.7 0.6 -0.7 0.7 -1.3 0.3 -1.3 -0.4 0 -0.2 -0.7 0.5 -1.5 0.7 -0.8 0.9 -1.5 0.5 -1.5 -0.4 0 -0.2 -0.7 0.5 -1.5 0.7 -0.8 0.9 -1.5 0.5 -1.5 -0.4 0 -0.2 -0.7 0.5 -1.5 0.7 -0.8 0.9 -1.5 0.5 -1.5 -0.4 0 -0.2 -0.7 0.5 -1.5 0.7 -0.8 0.9 -1.5 0.5 -1.5 -0.4 0 -0.2 -0.7 0.5 -1.5 0.7 -0.8 0.9 -1.5 0.5 -1.5 -0.4 0 -0.2 -0.7 0.5 -1.5 0.7 -0.8 0.9 -1.5 0.5 -1.5 -0.4 0 -0.3 -0.6 0.3 -1.2 0.5 -0.7 1.3 -2.8 1.7 -4.5 0.8 -4.2 3.5 -4.4 3.5 -0.4 0 2.9 -3.1 14 -5.5 19.6 -1.6 3.8 -4.7 14.4 -5.1 17 -0.1 1.1 -0.3 2.1 -0.4 2.3 -0.2 0.1 -0.4 0.7 -0.5 1.2 -0.1 0.6 -0.4 1.2 -0.5 1.5 -0.1 0.3 -0.4 1 -0.5 1.5 -0.1 0.6 -0.4 1.2 -0.5 1.5 -0.1 0.3 -0.4 1 -0.5 1.5 -0.1 0.6 -0.4 1.2 -0.5 1.5 -0.1 0.3 -0.4 1 -0.5 1.5 -0.1 0.6 -0.4 1.2 -0.5 1.5 -0.1 0.3 -0.3 0.9 -0.4 1.4 0 0.5 -0.4 1.2 -0.8 1.6 -0.4 0.4 -0.4 1.3 -0.1 2.1 0.3 0.8 0 1.4 -0.6 1.4 -0.6 0 -0.8 0.7 -0.5 1.5 0.4 0.8 0.1 1.5 -0.5 1.5 -0.6 0 -0.8 0.7 -0.5 1.5 0.4 0.8 0.1 1.5 -0.5 1.5 -0.6 0 -0.8 0.7 -0.5 1.5 0.4 0.8 0.1 1.5 -0.5 1.5 -0.6 0 -0.8 0.7 -0.5 1.5 0.4 0.8 0.2 1.5 -0.2 1.5 -0.8 0 -1.2 1.7 -1.7 7.3 -0.1 0.9 -0.5 1.7 -1 1.7 -0.5 0 -0.7 0.6 -0.4 1.3 0.2 0.6 -0.3 1.7 -1.2 2.4 -1.3 1 -1.3 1.2 -0.2 1.3 1.1 0 0.9 0.4 -0.5 1.5 -1.4 1 -1.5 1.4 -0.5 1.5 1.1 0 0.9 0.4 -0.5 1.5 -1.4 1 -1.5 1.4 -0.5 1.5 1.1 0 0.9 0.4 -0.5 1.5 -1.4 1 -1.5 1.4 -0.5 1.5 1.1 0 0.9 0.4 -0.5 1.5 -1.4 1 -1.5 1.4 -0.5 1.5 1.1 0 0.9 0.4 -0.5 1.5 -1.1 0.8 -1.4 1.5 -0.6 1.5 0.6 0 1.2 0.5 1.2 1.1 0 0.5 -0.4 0.8 -0.9 0.4 -0.5 -0.3 -1.2 -0.1 -1.6 0.5 -0.3 0.5 -0.1 1 0.4 1 0.6 0 1.1 0.5 1.1 1.1 0 0.5 -0.4 0.8 -0.9 0.4 -0.5 -0.3 -1.2 -0.1 -1.6 0.5 -0.3 0.5 -0.1 1 0.4 1 1.9 0 1.2 2 -0.6 2.1 -1.1 0 -1.3 0.3 -0.5 0.6 1.8 0.7 1.5 2.3 -0.5 2.3 -1.6 0 -1.6 0.2 -0.3 1.1 1.1 0.7 1.2 1.2 0.3 1.5 -0.7 0.3 -0.9 1.2 -0.6 2 0.3 0.8 0 1.4 -0.7 1.4 -0.6 0 -0.8 0.5 -0.5 1.1 0.4 0.6 -0.1 1.7 -1.1 2.5 -1.1 0.9 -1.3 1.3 -0.6 0.9 1.8 -0.9 1.5 0.6 -0.5 2.2 -1 0.8 -1.2 1.2 -0.5 0.8 1.8 -0.9 1.5 0.6 -0.5 2.2 -1 0.8 -1.2 1.2 -0.5 0.8 1.8 -0.9 1.5 0.6 -0.5 2.2 -1 0.8 -1.2 1.2 -0.5 0.8 1.8 -0.9 1.5 0.6 -0.5 2.2 -1 0.8 -1.2 1.2 -0.5 0.8 1.5 -0.8 1.5 -0.5 -0.3 3.2 -0.8 1.6 -1.7 4 -1.9 5.4 -0.2 1.3 -0.5 2.5 -0.7 2.7 -0.1 0.1 -0.2 0.7 -0.3 1.2 0 0.6 -0.8 1.5 -1.6 2 -1.3 0.9 -1.3 1 0 1 1.1 0.1 1 0.4 -0.4 1.5 -1.4 1.1 -1.6 1.5 -0.5 1.5 1.1 0.1 1.1 0.3 -0.2 1.3 -0.9 0.7 -1.4 1.8 -1.2 2.5 0.3 0.6 0 1.2 -0.5 1.2 -0.6 0 -0.8 1 -0.4 2.2 0.3 1.2 0.1 1.9 -0.5 1.5 -0.5 -0.3 -1 0.1 -1 0.9 0 0.8 0.5 1.3 1.1 1.1 1.1 -0.4 3.6 1.6 3.6 2.7 0 1 -5.4 0.6 -7 -0.4z"/>
  <path d="M573 399.5 c-13.7 -4.5 -15 -5.2 -15 -8.4 0 -1.5 1.9 -8.5 4.3 -15.6 4.3 -12.8 4.4 -13 7.5 -13.3 1.9 -0.2 8.7 1.5 16.2 4 12.9 4.2 13 4.3 13 7.3 0 1.7 -1.9 8.9 -4.3 16 l-4.4 13 -3.4 0.2 c-1.9 0.2 -8.1 -1.3 -13.9 -3.2z"/>
  <path d="M553 385.7 c0 -0.8 0.9 -4 2 -7.2 1.1 -3.2 2 -6.4 2 -7.1 0 -1.1 -8.6 -1.3 -44.6 -1.4 -48.6 0 -48.1 0 -52.3 -5.8 -1.1 -1.6 -1.8 -3.2 -1.4 -3.6 0.3 -0.3 -0.1 -0.6 -1 -0.6 -1 0 -1.7 -0.8 -1.7 -1.9 0 -1.4 -1 -2 -4.1 -2.4 -5.9 -0.8 -8.1 -3.4 -8.7 -10.1 -0.4 -5.2 -0.3 -5.6 1.7 -5.6 1.7 0 2.1 0.6 2.1 3.4 0 4.9 3.4 8.8 7.4 8.4 l3.1 -0.3 0.5 -93.7 c0.5 -92.9 0.5 -93.7 2.6 -96.4 1.4 -1.9 4 -3.4 8 -4.6 5.4 -1.7 10 -1.8 56.4 -1.4 27.8 0.2 54 0.6 58.2 0.8 5.1 0.2 7.2 0 6.1 -0.6 -2.5 -1.4 -15.4 -4.6 -18.8 -4.6 -4.7 0 -7.5 -1.1 -7.5 -2.8 0 -3.4 28.2 1.6 35.8 6.4 1.9 1.3 2.2 1.3 2.2 -0.2 0 -1.1 0.5 -1.4 1.8 -0.9 0.9 0.4 2.3 0.8 3 0.8 0.6 0 1 0.2 0.8 0.5 -0.7 0.6 5.6 5.8 6.6 5.4 0.4 -0.1 0.7 0.1 0.6 0.6 -0.4 1 3.8 6.2 5 6.2 1.4 0 13.7 12.3 15.6 15.6 0.8 1.6 2.8 5.5 4.3 8.7 l2.7 5.8 1.8 -5.8 c1.1 -3.2 1.9 -6.8 2 -8 0 -1.3 0.4 -2.3 0.9 -2.3 0.5 0 0.6 -0.7 0.3 -1.5 -0.4 -0.8 -0.1 -1.5 0.5 -1.5 0.6 0 0.8 -0.6 0.5 -1.4 -0.3 -0.8 0 -1.7 0.5 -2.1 0.6 -0.3 0.9 -1 0.6 -1.5 -0.3 -0.5 -0.1 -1.1 0.4 -1.5 0.6 -0.3 0.8 -1.2 0.4 -2 -0.3 -0.8 0 -1.5 0.6 -1.5 0.6 0 0.8 -0.7 0.5 -1.5 -0.4 -0.8 -0.1 -1.5 0.5 -1.5 0.6 0 0.8 -0.7 0.5 -1.5 -0.4 -0.8 -0.1 -1.5 0.5 -1.5 0.6 0 0.8 -0.7 0.5 -1.5 -0.4 -0.8 -0.1 -1.5 0.5 -1.5 0.6 0 0.8 -0.7 0.5 -1.5 -0.4 -0.8 -0.1 -1.5 0.5 -1.5 0.6 0 0.8 -0.7 0.5 -1.5 -0.4 -0.8 -0.1 -1.5 0.5 -1.5 0.6 0 0.8 -0.7 0.5 -1.5 -0.4 -0.8 -0.1 -1.5 0.5 -1.5 0.6 0 0.8 -0.7 0.5 -1.5 -0.4 -0.8 -0.1 -1.5 0.5 -1.5 0.6 0 0.8 -0.7 0.5 -1.5 -0.4 -0.8 -0.2 -1.5 0.4 -1.5 0.5 0 0.9 -0.6 0.8 -1.2 -0.2 -2.2 3.6 -14.8 4.5 -14.8 0.5 0 0.6 -0.7 0.3 -1.5 -0.4 -0.8 -0.1 -1.5 0.5 -1.5 0.6 0 0.8 -0.7 0.5 -1.5 -0.4 -0.8 -0.1 -1.5 0.5 -1.5 0.6 0 0.8 -0.7 0.5 -1.5 -0.4 -0.8 -0.1 -1.5 0.5 -1.5 0.6 0 0.8 -0.7 0.5 -1.5 -0.4 -0.8 -0.1 -1.5 0.5 -1.5 0.6 0 0.8 -0.7 0.5 -1.5 -0.4 -0.8 -0.1 -1.5 0.5 -1.5 0.6 0 0.8 -0.7 0.5 -1.5 -0.4 -0.8 -0.1 -1.5 0.5 -1.5 0.6 0 0.8 -0.7 0.5 -1.5 -0.4 -0.8 -0.1 -1.5 0.5 -1.5 0.6 0 0.8 -0.7 0.5 -1.5 -0.4 -0.8 -0.1 -1.5 0.5 -1.5 0.6 0 0.8 -0.7 0.5 -1.5 -0.4 -0.8 -0.1 -1.5 0.6 -1.5 0.6 0 0.9 -0.4 0.5 -0.9 -0.6 -1.1 6.2 -22.9 7.8 -24.9 0.8 -1 0.7 -1.3 -0.4 -1.1 -1.9 0.3 -4.9 -1.1 -4.9 -2.3 0 -1 3.7 -0.7 11.5 0.9 3.1 0.6 4.1 1.3 4.3 3.1 0.3 2 0 2.2 -3.2 1.8 -2.8 -0.4 -3.4 -0.2 -2.9 1 0.3 0.7 0 1.4 -0.6 1.4 -0.6 0 -0.8 0.7 -0.5 1.5 0.4 0.8 0.1 1.5 -0.5 1.5 -0.6 0 -0.8 0.7 -0.5 1.5 0.4 0.8 0.1 1.5 -0.5 1.5 -0.6 0 -0.8 0.7 -0.5 1.5 0.4 0.8 0.1 1.5 -0.5 1.5 -0.6 0 -0.8 0.7 -0.5 1.5 0.4 0.8 0.1 1.5 -0.5 1.5 -0.6 0 -0.8 0.7 -0.5 1.5 0.4 0.8 0.1 1.5 -0.5 1.5 -0.6 0 -0.8 0.7 -0.5 1.5 0.4 0.8 0.1 1.5 -0.5 1.5 -0.6 0 -0.8 0.7 -0.5 1.5 0.4 0.8 0.1 1.5 -0.6 1.5 -0.6 0 -0.9 0.4 -0.6 0.9 0.5 0.8 -1.1 6.5 -3.1 11.1 -0.3 0.8 -0.7 1.8 -0.8 2.3 -0.2 0.4 -0.4 0.9 -0.5 1.2 -0.1 0.3 -0.4 1 -0.5 1.5 -0.1 0.6 -0.4 1.2 -0.5 1.5 -0.1 0.3 -0.4 1 -0.5 1.5 -0.1 0.6 -0.4 1.2 -0.5 1.5 -0.1 0.3 -0.4 1 -0.5 1.5 -0.1 0.6 -0.4 1.2 -0.5 1.5 -0.1 0.3 -0.4 1 -0.5 1.5 -0.1 0.6 -0.4 1.2 -0.5 1.5 -0.1 0.3 -0.3 0.9 -0.4 1.4 0 0.5 -0.4 1.2 -0.8 1.6 -0.4 0.4 -0.4 1.3 -0.1 2.1 0.3 0.8 0 1.4 -0.6 1.4 -0.6 0 -0.8 0.7 -0.5 1.5 0.4 0.8 0.1 1.5 -0.6 1.5 -0.6 0 -0.9 0.4 -0.6 0.9 0.5 0.7 -1.1 6.4 -4 14.1 -0.3 0.8 -0.5 1.7 -0.5 2 -0.1 0.3 -0.5 1.1 -1.1 1.8 -0.6 0.6 -0.7 1.2 -0.3 1.2 0.4 0 0.2 0.7 -0.5 1.5 -0.7 0.8 -0.9 1.5 -0.5 1.5 0.4 0 0.2 0.7 -0.5 1.5 -0.7 0.8 -0.9 1.5 -0.5 1.5 0.4 0 0.2 0.7 -0.5 1.5 -0.7 0.8 -0.9 1.5 -0.5 1.5 0.4 0 0.2 0.7 -0.5 1.5 -0.7 0.8 -0.9 1.5 -0.5 1.5 0.4 0 0.2 0.7 -0.5 1.5 -0.7 0.8 -0.9 1.5 -0.5 1.5 0.4 0 0.2 0.7 -0.5 1.5 -0.7 0.8 -0.9 1.5 -0.5 1.5 0.4 0 0.2 0.7 -0.5 1.5 -0.7 0.8 -1 1.5 -0.7 1.5 0.8 0 -2.3 10.2 -3.5 11.8 -0.6 0.6 -0.7 1.2 -0.3 1.2 0.4 0 0.2 0.7 -0.5 1.5 -0.7 0.8 -0.9 1.5 -0.5 1.5 0.4 0 0.2 0.7 -0.5 1.5 -0.7 0.8 -0.9 1.5 -0.5 1.5 0.4 0 0.1 0.7 -0.6 1.7 -0.8 0.9 -1.3 1.8 -1.1 2 0.1 0.1 0.2 0.4 0.1 0.6 -0.4 1.2 -0.8 5.7 -0.7 7.7 0.5 9.3 0.2 102.8 -0.4 108 -1 9.7 -4.3 19.2 -9.5 26.7 -2.5 3.8 -5 7 -5.5 7.1 -0.5 0.2 -2.3 1.7 -4.1 3.4 -1.8 1.6 -6.7 4.6 -10.9 6.6 -7 3.3 -9.5 5.2 -6.8 5.2 0.6 0 1 0.5 1 1.1 0 1.3 -7 0.7 -11.2 -1 -2.3 -0.8 -2.8 -1.7 -2.8 -4.3 0 -3.3 0.1 -3.3 9.6 -6.3 5.3 -1.6 9.9 -3.6 10.1 -4.2 0.3 -0.7 1.1 -1.3 1.9 -1.3 0.8 0 1.4 -0.4 1.4 -0.9 0 -0.6 1.2 -1.6 2.7 -2.3 1.5 -0.7 3.4 -2.5 4.2 -3.9 0.9 -1.5 2.8 -4.6 4.3 -7.1 3.2 -5.1 6.8 -15 6.8 -18.5 0 -2.8 3.9 -3.4 4.1 -0.5 0.1 0.9 0.5 -0.5 0.9 -3.3 0.5 -2.7 0.8 -25.5 0.7 -50.5 l-0.2 -45.5 -0.5 46.5 c-0.3 25.6 -0.7 46.6 -0.8 46.8 -0.1 0.1 -0.9 0.2 -1.7 0.2 -1.4 0 -1.5 -5.7 -1.3 -48.7 0.2 -26.9 0.7 -49.6 1.2 -50.5 0.6 -1.3 0.4 -1.8 -0.6 -1.8 -1 0 -1.8 -2.3 -2.7 -8 -0.8 -4.4 -1.7 -8 -2.1 -8 -0.4 0 -1.4 -1.5 -2.1 -3.2 -1.3 -3.1 -2.8 -5.3 -5.6 -8.3 -0.7 -0.8 -1.3 -1.8 -1.3 -2.4 0 -0.6 -0.8 -1.5 -1.9 -2 -1 -0.6 -2.4 -2.5 -3.2 -4.3 -1.7 -4 -4.9 -7.5 -4.9 -5.3 0 2.2 -4.3 1.9 -13.4 -1.1 -4.4 -1.3 -11.1 -2.8 -15 -3.2 -5.4 -0.5 -7.1 -1.1 -7.4 -2.4 -0.2 -0.9 0.5 -1.8 1.5 -2.1 1 -0.3 -22.9 -0.5 -53.2 -0.5 -30.2 0 -54.2 0.2 -53.2 0.5 2 0.5 2.3 4.3 0.3 4.3 -0.8 0 -2.3 1.1 -3.4 2.5 -2.7 3.4 -5.6 3.4 -5 0 0.3 -1.3 0.1 -2.2 -0.3 -1.9 -0.5 0.3 -0.8 42.5 -0.8 93.7 0.1 51.3 0.3 92.4 0.6 91.4 0.2 -0.9 0.9 -1.5 1.4 -1.2 1.4 0.9 1.1 6.5 -0.3 6.6 -0.7 0 -0.1 0.5 1.5 1.1 1.5 0.5 2.7 1.6 2.7 2.4 0 0.8 0.7 1.4 1.5 1.4 2.1 0 1.9 3.8 -0.2 4.3 -1 0.3 18.9 0.5 44.2 0.5 25.3 0 45.2 -0.2 44.3 -0.5 -3.3 -0.8 -2 -3.3 1.7 -3.3 3.3 0 3.5 0.2 3.5 3.2 0 1.7 -1.5 7.3 -3.2 12.5 -2.5 6.9 -3.7 9.3 -5 9.3 -1 0 -1.8 -0.6 -1.8 -1.3z m65.5 -31.7 c0.3 -0.5 -1 -0.1 -2.9 1.1 -2 1.2 -3.6 2.3 -3.6 2.5 0 0.7 5.8 -2.5 6.5 -3.6z m10.5 -9.7 c0 -0.8 -0.9 0 -5 4.5 l-4.5 4.7 4.8 -4.5 c2.6 -2.4 4.7 -4.5 4.7 -4.7z m4 -6.6 c0 -1.2 0 -1.1 -2.4 2.8 l-1.7 3 2 -2.4 c1.2 -1.3 2.1 -2.8 2.1 -3.4z m2.1 -4.3 c0.5 -1.5 0.8 -2.9 0.5 -3.1 -0.2 -0.2 -0.8 1 -1.4 2.6 -1.3 3.8 -0.5 4.1 0.9 0.5z m0.4 -139.7 c-2.2 -5.3 -2.7 -4.6 -0.7 0.8 0.9 2.6 1.8 4.2 2 3.7 0.1 -0.5 -0.4 -2.5 -1.3 -4.5z m-42 -31.7 c-1.1 -0.5 -3.8 -0.8 -6 -0.8 l-4 0.1 4.5 0.7 c6.4 1 7.8 1 5.5 0z"/>
  <path d="M733.5 376.8 c-10.4 -3.5 -31.9 -10.9 -34 -11.8 -1.1 -0.4 -4.6 -1.6 -7.9 -2.6 -7 -2.3 -9.3 -4.9 -10.2 -11.5 -0.6 -4.6 -0.9 -5 -5.3 -7.1 -2.5 -1.2 -4.9 -2.2 -5.4 -2 -0.4 0.1 -0.6 -0.1 -0.5 -0.5 0.1 -0.5 -0.6 -2.2 -1.5 -4 -2.1 -4 -2.1 -4.3 0.3 -4.3 1.7 0 2 -0.7 2 -4 0 -3.3 -0.3 -4 -1.9 -4 -1.7 0 -1.8 -0.3 -0.8 -3.5 0.6 -1.9 1.6 -3.5 2.4 -3.5 0.8 0 1.3 1.3 1.3 3.5 0 2.8 0.4 3.5 1.9 3.5 1.7 0 1.8 0.5 1.4 4.2 -0.4 2.9 -0.3 3.9 0.5 3.4 0.8 -0.4 1 -0.2 0.6 0.7 -0.5 1.3 0.8 2.4 3 2.5 0.5 0 1.2 0.5 1.6 1.1 1.8 3 4.1 -0.7 8.1 -12.7 3.9 -12.1 4.1 -12.9 2.9 -17.7 -1.3 -5.6 -3.6 -11.1 -4.9 -12 -0.5 -0.3 -2.1 3.3 -3.6 8 -2.8 8.7 -5.5 11.4 -5.5 5.5 0 -2.2 -0.5 -3 -1.7 -3 -1.2 0 -1.8 -0.8 -1.9 -2.5 -0.1 -1.4 0.2 -2.2 0.7 -1.9 0.5 0.3 0.9 -0.2 0.9 -1.1 0 -2.5 2 -0.7 2 1.8 0.1 3.1 4 -7.2 4 -10.5 0 -3.9 -1.1 -6.3 -2.1 -4.6 -0.6 1 -1.2 0.8 -2.8 -0.8 -2.2 -2.5 -2.3 -5.7 0 -6.4 1.3 -0.4 0.5 -3.7 -5 -20.4 -3.6 -11 -6.7 -19.4 -6.9 -18.8 -0.6 2 -2.9 1.3 -3.6 -1 -0.9 -3.6 -0.7 -4.8 0.9 -4.8 1.8 0 2 1 -1 -8.5 -1.4 -4.4 -2.8 -11.7 -3.2 -16.2 -0.6 -8 -0.5 -8.3 1.6 -8.3 1.8 0 2.1 0.6 2.1 4.5 0 2.5 1 8.5 2.2 13.3 2.2 8.7 2.2 8.7 3 4.7 1.5 -8.6 2.7 -12.8 10.6 -36 14.8 -43.5 14.4 -42.6 20.8 -45.1 3.5 -1.3 5.1 -1.4 9.1 -0.5 8.2 1.9 14.6 3.8 20.3 6.1 5.9 2.4 5.9 2.4 10.8 3.5 3.5 0.8 4.1 2.5 1.6 4.9 -1.3 1.4 -1.4 1.6 0 1.6 2 0 3.6 -7.7 2.3 -10.7 -0.6 -1.3 -1.6 -2.3 -2.4 -2.3 -0.7 0 -1.3 -0.4 -1.3 -0.8 0 -0.7 -6.2 -3.3 -9 -3.8 -1.7 -0.3 -4 -1.7 -4 -2.5 0 -2.5 13.6 -0.3 17.1 2.7 2.1 1.9 2.9 1.8 2.9 -0.3 0.1 -2.9 5 3.3 5.2 6.5 0.2 4.3 -0.3 8.5 -1.4 10.7 -0.9 1.9 -0.8 1.9 0.6 0.1 1.3 -1.5 1.7 -1.6 3.1 -0.5 3.7 3.1 6.5 6.3 6.5 7.5 0 0.8 0.5 1.4 1 1.4 1.3 0 1.3 4.2 0.1 7.2 -3.7 9.2 -8.1 25.1 -7.6 27 0.4 1.6 0.3 1.9 -0.3 1 -1 -1.4 -2.1 0.8 -4.1 7.8 -0.5 1.9 -1.9 6 -3 9 -2.3 6.1 -2.7 11 -0.9 12.8 0.8 0.8 2.3 0.2 5.8 -2.8 5.1 -4.3 6 -4.7 6 -2.7 0 0.9 1.2 1.1 4.1 0.9 2.8 -0.3 3.9 -0.1 3.5 0.7 -0.5 0.8 -11.9 10.3 -16.5 13.8 -0.2 0.1 0.1 3.4 0.8 7.3 1 5.4 1.7 7.1 3.3 7.5 2.1 0.7 7.8 -1.2 7.8 -2.5 0 -0.5 1.5 -1.8 3.4 -2.9 1.9 -1.2 5.1 -3.7 7.2 -5.7 2.2 -2 4.9 -4.3 6.2 -5.1 1.2 -0.8 2.2 -2 2.2 -2.5 0 -0.5 1.1 -3.7 2.4 -7.1 1.3 -3.4 4.9 -14.1 8.1 -23.7 3.2 -9.6 6.6 -19.4 7.7 -21.7 2.1 -4.5 6.5 -7.3 11.5 -7.3 3.3 0 14.5 2.6 17 3.9 2.6 1.4 8.2 3.4 8.5 3 0.2 -0.1 1.3 0.3 2.5 1 1.3 0.6 4.3 1.5 6.8 2 3.6 0.7 4.5 0.6 4.5 -0.5 0 -0.8 0.7 -1.4 1.5 -1.4 0.8 0 1.5 0.5 1.5 1.2 0 0.6 0.3 0.9 0.6 0.5 0.3 -0.3 -0.1 -2.8 -1 -5.5 -1.4 -4.2 -2.2 -5.1 -4.6 -5.6 -2.4 -0.4 -3 -1.1 -3 -3 0 -2.3 0.2 -2.4 2.9 -1.5 1.7 0.6 3.5 1.7 4.2 2.5 0.6 0.7 1.5 1.1 2 0.8 0.5 -0.3 0.8 -0.2 0.7 0.3 -0.1 0.4 0.6 2.3 1.6 4.2 1.7 3.1 1.8 7.9 0.4 12.1 -0.2 0.8 -0.3 1.2 -0.1 0.8 0.2 -0.4 2.4 0.5 4.8 1.9 5 3.1 7 7.9 5.9 14 -0.6 3.3 -9.3 30.2 -11.1 34.3 -0.4 0.8 -0.8 2.2 -0.9 3 -0.3 1.3 -4 11.9 -8.7 24.5 -4.1 11.1 -12.5 20.1 -29.2 31.4 -6.1 4 -11.2 7.6 -11.5 8 -0.3 0.4 -4.8 3.5 -10 7.1 -5.2 3.5 -10.1 7 -10.8 7.7 -0.8 0.7 -2.3 1.8 -3.5 2.4 -1.2 0.7 -5 3.2 -8.4 5.7 -5.6 4.1 -6.2 4.9 -7.8 10.6 -0.9 3.3 -2.1 6.6 -2.5 7.1 -0.4 0.6 -1.2 2.8 -1.8 5 -3.5 12.8 -6 18 -10.2 21.3 -4.8 3.7 -7 3.8 -15.5 1z m15.5 -5.9 c1.2 -1.6 2 -3.3 1.7 -3.6 -0.3 -0.2 -1.3 0.9 -2.1 2.5 -0.9 1.7 -2.1 3.2 -2.8 3.5 -0.9 0.4 -0.9 0.6 -0.1 0.6 0.6 0.1 2.1 -1.3 3.3 -3z m-4.5 -2.5 c1.4 -0.9 2.5 -2.4 2.5 -3.2 0 -0.9 2.5 -9.2 5.6 -18.5 5.4 -16.1 7.9 -20.7 11.1 -20.7 0.7 0 1.3 -0.4 1.3 -1 0 -0.5 0.7 -1 1.5 -1 0.8 0 1.5 -0.4 1.5 -1 0 -0.5 0.7 -1 1.5 -1 0.8 0 1.5 -0.5 1.5 -1.1 0 -0.5 1.6 -1.7 3.5 -2.5 1.9 -0.8 3.5 -1.9 3.5 -2.4 0 -0.6 0.4 -1 0.9 -1 0.6 0 2.2 -1.1 3.7 -2.5 1.5 -1.4 3.3 -2.5 4 -2.5 0.8 0 1.4 -0.4 1.4 -1 0 -0.5 0.7 -1 1.5 -1 0.8 0 1.5 -0.4 1.5 -0.8 0 -0.5 1.2 -1.5 2.7 -2.3 1.5 -0.8 3.8 -2.4 5.1 -3.6 1.4 -1.3 3.1 -2.3 3.8 -2.3 0.8 0 1.4 -0.4 1.4 -1 0 -0.5 0.7 -1 1.5 -1 0.8 0 1.5 -0.4 1.5 -1 0 -0.5 0.6 -1 1.3 -1 0.6 0 2.3 -1.2 3.6 -2.5 1.3 -1.4 2.9 -2.5 3.7 -2.5 0.8 0 1.4 -0.4 1.4 -1 0 -0.5 0.5 -1 1.1 -1 0.6 0 2 -1.1 3.1 -2.5 1.1 -1.4 2.5 -2.5 3.1 -2.5 1.5 0 6.7 -5.1 6.7 -6.6 0 -0.7 0.4 -1.4 0.8 -1.6 1.3 -0.5 5.8 -11.7 11.3 -27.8 2.9 -8.5 5.6 -15.6 6.1 -15.8 0.4 -0.2 0.8 -1.4 0.8 -2.6 0 -2.7 3.7 -13.8 4.9 -14.6 0.4 -0.3 1.1 -2.5 1.4 -5 0.6 -4.9 -1.5 -9 -4.7 -9 -0.9 0 -1.6 -0.8 -1.6 -1.7 0 -1.5 -0.8 -1.7 -4.8 -1.5 -3.5 0.3 -5.3 -0.1 -6.5 -1.2 -0.8 -0.9 -2.7 -1.6 -4.1 -1.6 -1.4 0 -2.6 -0.4 -2.6 -1 0 -0.5 -1.1 -1 -2.3 -1 -1.3 0 -6.3 -1.4 -11.1 -3 -4.9 -1.7 -9.5 -2.8 -10.5 -2.5 -2.7 0.8 -4 3.8 -12.6 29.6 -4.6 13.7 -8.7 25.4 -9.1 26.1 -1.5 2.5 -4.9 5.8 -6 5.8 -0.7 0 -1.9 1.1 -2.8 2.5 -0.9 1.4 -2.2 2.5 -2.9 2.5 -0.7 0 -1.8 0.9 -2.5 2 -0.7 1.1 -1.8 2 -2.6 2 -0.8 0 -1.6 0.7 -2 1.5 -0.3 0.8 -1.5 1.5 -2.6 1.5 -1.1 0 -2 0.7 -2 1.5 0 3.8 -11.5 5 -14 1.5 -0.8 -1.1 -2.4 -2 -3.7 -2 -2.7 0 -4.2 -4.2 -5 -14.4 -0.4 -5.2 -0.3 -7 0.8 -7.7 1 -0.6 0.7 -0.9 -1.2 -0.9 -2.9 0 -3.9 -1.9 -3.9 -7.7 0 -2.3 0.5 -3.3 1.5 -3.3 0.8 0 1.6 0.8 1.6 1.8 0.1 0.9 0.5 -0.5 1 -3.3 0.9 -5.5 0.5 -7.4 -0.6 -2.6 -0.8 3.8 -3.5 4.2 -3.5 0.5 0 -3.7 2.1 -11.4 3.1 -11.4 0.5 0 0.9 -0.8 0.9 -1.8 0 -1 2.9 -10.5 6.5 -21.1 l6.4 -19.3 -2.1 -2.9 c-1.2 -1.6 -3 -2.9 -4 -2.9 -1.3 0 -1.8 -0.8 -1.8 -2.5 0 -1.6 -0.6 -2.5 -1.5 -2.5 -0.8 0 -1.5 0.5 -1.5 1 0 2.1 -6 0.8 -22.4 -4.6 l-17 -5.7 -2.2 2.6 c-2.9 3.4 -23.4 64 -23.4 69.2 0 3.7 -3.7 3.4 -4.3 -0.2 -0.2 -1.6 -0.4 -0.1 -0.4 3.2 -0.1 3.3 0.1 5.2 0.4 4.2 0.2 -0.9 1.3 -1.7 2.2 -1.7 1.4 0 2 1 2.5 3.9 0.5 3.5 14.1 46.3 21.7 68.2 1.6 4.7 2.9 9.9 2.9 11.6 0 1.6 -2.2 9.4 -5 17.3 -2.7 7.9 -5 14.5 -5 14.7 0 0.1 -0.9 0.3 -2 0.3 -2.9 0 -2.6 4.4 0.6 8 1.9 2.1 5.3 3.8 12.3 6.1 5.3 1.8 9.8 3.6 9.9 4 0.2 0.5 1.6 0.9 3 1 1.5 0 7.4 1.8 13.2 3.9 12.4 4.5 12.4 4.5 15.5 2.4z m-28.5 -2.3 c-0.8 -0.5 -2.6 -1.1 -4 -1.5 -2.1 -0.5 -2 -0.3 0.5 0.9 3.2 1.5 6 2 3.5 0.6z m-24.6 -8.5 c-3.7 -1.6 -4.5 -2.8 -5.5 -7.6 l-0.7 -3.5 -0.1 3.3 c-0.1 3.8 4.4 9.2 7.6 9.2 1.1 -0.1 0.7 -0.6 -1.3 -1.4z m64 -3.6 c0.5 -1.7 0.4 -2 -0.2 -1 -0.5 0.8 -1.3 2.6 -1.6 4 -0.5 1.7 -0.4 2 0.2 1 0.5 -0.8 1.3 -2.6 1.6 -4z m4.5 -12.9 c0 -1.4 -0.1 -1.4 -0.6 -0.1 -0.3 0.8 -1 2.4 -1.5 3.5 -0.9 2 -0.9 2 0.6 0.1 0.9 -1.1 1.6 -2.7 1.5 -3.5z m7.2 -11.7 c0.9 -1.1 0.2 -0.9 -1.8 0.6 -1.8 1.3 -3.3 2.5 -3.3 2.7 0 0.8 3.8 -1.7 5.1 -3.3z m-71.1 -11.4 c0.5 -1.9 0.6 -2.9 0.1 -2.4 -1 1 -2.6 7.2 -1.7 6.3 0.4 -0.4 1.1 -2.1 1.6 -3.9z m135.5 -35 c2.1 -2.2 3.7 -4 3.4 -4 -0.3 0 -2.3 1.8 -4.4 4 -2.1 2.2 -3.7 4 -3.4 4 0.3 0 2.3 -1.8 4.4 -4z m-81.2 -24 c-1.8 -1.1 -3.3 -2.5 -3.3 -3.2 0 -0.6 -0.2 -0.9 -0.5 -0.6 -1 1 0.8 4 2.9 4.8 3.8 1.5 4.2 1 0.9 -1z m12.7 -2.6 c0 -0.9 -3.7 1.5 -5.1 3.3 -1 1.2 -0.5 1.1 1.9 -0.6 1.7 -1.2 3.2 -2.4 3.2 -2.7z m10.1 -7.9 c4.5 -3.6 7.8 -6.5 7.4 -6.5 -0.6 0 -6.6 4.6 -13.3 10.2 -6.5 5.5 -1.9 2.7 5.9 -3.7z m-28.1 0.5 c-0.6 -2.3 -1.3 -4 -1.5 -3.8 -0.2 0.2 0.1 2.3 0.7 4.6 0.6 2.4 1.3 4.1 1.5 3.8 0.2 -0.2 -0.1 -2.3 -0.7 -4.6z m44.4 -28 c0.5 -2 0.3 -1.9 -0.8 0.5 -0.7 1.7 -1.6 4.1 -2 5.5 -0.5 2 -0.3 1.9 0.8 -0.5 0.7 -1.6 1.6 -4.1 2 -5.5z m-111 -20 c0.5 -1.7 0.4 -2 -0.2 -1 -0.5 0.8 -1.3 2.6 -1.6 4 -0.5 1.7 -0.4 2 0.2 1 0.5 -0.8 1.3 -2.6 1.6 -4z m180.3 -2.6 c-1.5 -1.3 -3.3 -2.4 -4 -2.4 -0.7 0 0.3 0.9 2.1 2 1.7 1.1 3.2 2.5 3.2 3.2 0 0.6 0.3 0.8 0.8 0.4 0.4 -0.4 -0.6 -1.9 -2.1 -3.2z m-108.3 -5.4 c0.5 -1.7 0.4 -2 -0.2 -1 -0.5 0.8 -1.3 2.6 -1.6 4 -0.5 1.7 -0.4 2 0.2 1 0.5 -0.8 1.3 -2.6 1.6 -4z m4.9 -14.5 l0.6 -3 -1.3 3 c-0.8 1.7 -1.6 4.1 -2 5.5 l-0.7 2.5 1.4 -2.5 c0.8 -1.4 1.7 -3.8 2 -5.5z m61.2 4.5 c-1.1 -0.5 -2.7 -0.9 -3.5 -0.9 -0.9 0 -0.8 0.4 0.5 0.9 1.1 0.5 2.7 0.9 3.5 0.9 0.9 0 0.8 -0.4 -0.5 -0.9z m-128.7 -10.5 c0 -0.5 -0.6 0.4 -1.3 2 -0.8 1.7 -1.4 3.7 -1.4 4.5 0 0.8 0.7 -0.1 1.4 -2 0.7 -1.9 1.3 -3.9 1.3 -4.5z m11.4 -25.8 c0.8 -0.3 0.9 -0.6 0.1 -0.6 -1.3 -0.1 -5.3 4.6 -5.3 6.3 0 0.6 0.9 -0.3 1.9 -2 1.1 -1.8 2.5 -3.4 3.3 -3.7z"/>
  <path d="M82.4 368.1 c-1.8 -1.1 -4 -3.3 -5 -5 -1 -1.7 -2.4 -3.1 -3.1 -3.1 -2 0 -1.5 -3 0.5 -3.1 0.9 -0.1 -0.7 -0.5 -3.7 -0.9 -7.5 -1.1 -10.1 -4.2 -10.1 -12.2 0 -5.1 0.2 -5.8 2 -5.8 1.7 0 2 0.7 2 4.8 0 5.2 1.2 7.8 2.9 6.8 0.7 -0.5 1 -0.2 0.9 0.6 -0.4 1.7 3.9 2.3 5.8 0.8 1.2 -1.1 1.4 -7.6 1.4 -40.9 0 -35.6 0.2 -40.5 2 -48.4 1.8 -8.2 6.5 -23 9.6 -30.2 0.7 -1.6 2.2 -5.7 3.5 -9 1.2 -3.3 4.4 -11.8 7.1 -19 2.8 -7.1 6 -15.9 7.3 -19.5 1.3 -3.6 3 -8.1 3.8 -10 0.8 -1.9 2 -5 2.6 -6.7 0.7 -1.8 1.7 -3.3 2.1 -3.3 0.5 0 1.1 -0.8 1.4 -1.7 0.3 -1 2.3 -2.5 4.4 -3.5 7.6 -3.4 14.9 -3.9 49.4 -3.6 25.9 0.2 33.4 0 32.6 -0.9 -0.5 -0.6 -1.7 -0.9 -2.5 -0.6 -1.1 0.4 -1.4 0.2 -0.9 -0.5 1.1 -1.8 -2.9 -3.2 -9.3 -3.2 -5.4 0 -6.1 -0.2 -6.1 -2 0 -1.8 0.7 -2 7.5 -2 6 0 7.5 -0.3 7.5 -1.5 0 -0.8 0.4 -1.5 0.8 -1.5 1.2 0 10 6.3 10.1 7.3 0.1 0.4 0.1 1 0.1 1.5 0 0.4 0.5 0 1.1 -0.8 0.9 -1.3 1 -1.2 0.5 0.2 -0.3 1 -0.1 2.8 0.4 4 0.5 1.4 0.9 1.7 1 0.8 0 -1 0.3 -1.1 0.8 -0.4 0.4 0.6 2.4 1.9 4.5 2.9 6 2.8 8.3 7.3 20.3 40 2 5.5 4.2 11.4 4.9 13 0.8 1.7 3.2 8.2 5.5 14.5 2.3 6.3 4.6 12.3 5.1 13.2 0.5 1 0.9 2.4 0.9 3.1 0 0.8 0.8 2.9 1.7 4.8 3.7 7.4 6.3 24.5 6.3 41.9 l0.1 16.5 1.9 -3.9 c3.2 -6.3 4.8 -7.6 12.8 -10 1.9 -0.6 2.2 -0.4 2.2 1.8 0 1.5 -0.7 2.6 -1.7 2.9 -1.4 0.4 -1.2 0.5 0.5 0.6 2.4 0.1 3.2 3.1 0.8 3.1 -0.8 0 -1.7 0.6 -1.9 1.3 -0.4 0.9 -0.6 0.8 -0.6 -0.2 -0.1 -1.1 -0.4 -1.1 -1.6 -0.1 -1.3 1 -1.5 0.9 -1.5 -0.9 0 -2.1 -0.1 -2.1 -2.3 -0.4 -1.5 1 -2.8 3.6 -3.5 6.8 -1.3 5.6 -1.5 34.5 -0.2 38.5 0.5 1.7 0.8 1.9 0.9 0.8 0.1 -2.2 3.1 -2.4 3.1 -0.3 0 2.8 4.6 6.4 7.7 6.2 l2.8 -0.2 0.6 -18 c0.3 -10 1 -19.2 1.7 -20.7 2.2 -5.3 5.3 -6.3 21 -6.8 l14.4 -0.5 0.1 -42.2 c0.2 -37 0 -42.3 -1.3 -42.4 -0.8 0 -2.3 -0.2 -3.2 -0.4 -1 -0.2 -2.1 0.1 -2.4 0.6 -0.3 0.6 -1.1 0.5 -2 -0.2 -1.1 -0.9 -1.4 -0.8 -1.4 0.5 0 0.9 -0.7 1.6 -1.5 1.6 -1.1 0 -1.5 -1.2 -1.5 -4.5 0 -4.1 0.2 -4.5 2.4 -4.5 3 0 4.3 1.7 1.9 2.3 -1 0.3 1.7 0.5 6 0.6 l7.7 0.1 0.1 46.8 c0.1 25.7 0.3 45.9 0.6 45 0.8 -3.3 3.3 -2 3.3 1.7 l0 3.5 -15.9 0 c-14.5 0 -16.1 0.2 -18.5 2.1 -1.4 1.1 -2.6 2.7 -2.6 3.5 0 2.4 -3.8 1.6 -4.3 -0.8 -0.2 -1.3 -0.4 5.8 -0.4 15.7 -0.1 9.9 0.1 17.2 0.4 16.3 0.8 -3.3 3.3 -2 3.3 1.7 l0 3.5 -7.4 0 c-4.1 0 -8.6 -0.4 -10 -1 -2 -0.7 -2.5 -0.6 -2.8 0.7 -0.4 2.1 -5.8 -3.2 -5.8 -5.8 0 -1.1 -0.4 -1.9 -1 -1.9 -0.5 0 -1 2.5 -1 5.5 0 7.2 -2 11.9 -6.2 14.5 -3.1 1.9 -5 2 -30.6 2 -30.3 0 -31 -0.1 -35.3 -6.4 -1.3 -2 -3 -3.6 -3.6 -3.6 -0.7 0 -1.3 -0.7 -1.3 -1.5 0 -2.4 10.1 -2 13 0.5 1.3 1.1 2.7 2 3.2 2 0.4 0 0.8 1 0.8 2.1 0 1.7 -0.5 2 -2.5 1.7 -1.3 -0.3 -2.2 -0.1 -1.9 0.3 0.3 0.5 12.8 0.8 27.7 0.8 15 -0.1 26.4 -0.3 25.5 -0.6 -2.1 -0.5 -2.4 -4.3 -0.4 -4.3 0.8 0 1.7 -1.1 2 -2.5 0.7 -2.9 4.2 -3.4 4.9 -0.7 0.3 0.9 0.5 -17.9 0.5 -41.8 0 -23.9 -0.2 -42.7 -0.5 -41.7 -0.2 0.9 -1.2 1.7 -2.2 1.7 -1.4 0 -2 -1.5 -2.9 -7.3 -0.7 -4.1 -3.5 -14 -6.2 -22 -2.8 -8.1 -5 -15.3 -5 -16.1 0 -0.8 -0.4 -1.6 -0.8 -1.8 -1.1 -0.4 -12.2 -29.4 -12.2 -31.9 0 -1 -0.4 -1.9 -0.8 -1.9 -1 0 -4.2 -8.7 -4.2 -11.2 0 -1 -0.3 -1.8 -0.7 -1.8 -0.5 0 -2.1 -3.4 -3.8 -7.5 -1.9 -4.9 -3.6 -7.7 -4.9 -8.1 -2.3 -0.8 -4 -2.3 -4.9 -4.4 -0.4 -1.2 -0.6 -1.1 -0.6 0.3 -0.1 1.3 -1 1.7 -3.6 1.7 -3.7 0 -5 -2.5 -1.7 -3.3 0.9 -0.3 -16.1 -0.5 -37.8 -0.4 -21.7 0 -38.5 0.2 -37.2 0.4 3.6 0.7 2.7 3.8 -1.6 5.2 -4.5 1.5 -3.7 -0.2 -17.4 35.6 -5.5 14.3 -11 28.8 -12.4 32.2 -1.3 3.4 -2.4 6.6 -2.4 7.2 0 0.6 -0.3 1.1 -0.8 1.1 -0.4 0 -1.3 2.1 -2 4.8 -0.6 2.6 -2.4 8.8 -3.9 13.7 l-2.7 9 -0.5 43.5 c-0.3 23.9 -0.3 43.7 0.2 43.8 0.4 0.2 0.7 1.2 0.7 2.3 0 1.2 0.7 1.9 2 1.9 2.5 0 2.7 3.7 0.3 4.3 -1 0.3 10.1 0.5 24.7 0.5 14.6 0 25.7 -0.2 24.8 -0.5 -2.2 -0.5 -2.4 -4.1 -0.3 -4.9 0.8 -0.3 2 -2.1 2.7 -4 1.3 -3.7 3.4 -4.5 4.1 -1.6 0.3 0.9 0.5 -6.8 0.5 -17.3 0 -10.4 -0.2 -18.2 -0.5 -17.2 -0.8 3.2 -3.3 1.9 -3.3 -1.7 0 -6.7 -0.2 -6.6 14.7 -6.6 7.4 0 14.3 0.5 15.4 1 1.6 0.9 1.9 2.2 1.9 8.5 0 5.7 -0.3 7.5 -1.4 7.5 -1.7 0 -2.8 -4.1 -2.1 -7.7 0.3 -1.6 0.3 -2.3 0 -1.8 -0.3 0.6 -3.9 0.9 -8.7 0.8 -12.5 -0.3 -11.8 -1.5 -11.8 20.8 0 21.3 -0.5 23.2 -6.5 26.8 -3.4 2 -4.9 2.1 -29.8 2.1 -24.1 0 -26.5 -0.2 -29.3 -1.9z m2.6 -3.4 c0 -0.2 -1.2 -1.4 -2.7 -2.8 -2 -1.8 -2.4 -1.9 -1.3 -0.4 1.8 2.4 4 4.2 4 3.2z m171.4 -2.4 c1 -2.5 0.3 -2.3 -1.7 0.3 -1.3 1.8 -1.4 2.2 -0.3 1.8 0.8 -0.3 1.7 -1.3 2 -2.1z m-175.7 -91.5 c-0.2 -1.3 -0.4 -0.5 -0.4 1.7 -0.1 2.2 0.1 3.2 0.4 2.3 0.2 -1 0.2 -2.8 0 -4z m1.7 -6.8 c0.4 -2.5 0.3 -3.1 -0.4 -2 -0.5 0.8 -1 2.6 -1 3.9 0 3.2 0.6 2.4 1.4 -1.9z m172.6 -6 c-1.5 -5.7 -2.1 -4.6 -0.7 1.4 0.6 2.7 1.3 4.4 1.5 3.8 0.2 -0.6 -0.2 -2.9 -0.8 -5.2z m-5.1 -15.9 c-0.6 -1.8 -1.3 -3 -1.5 -2.8 -0.2 0.2 0.1 1.8 0.7 3.6 0.6 1.8 1.3 3 1.5 2.8 0.2 -0.2 -0.1 -1.8 -0.7 -3.6z m-158 -8.3 c0.6 -1.8 0.7 -2.8 0.2 -2.3 -1 1.2 -2.5 5.5 -1.8 5.5 0.3 0 1 -1.5 1.6 -3.2z m153.5 -3.7 c-0.9 -2.3 -1.8 -4 -2 -3.8 -0.2 0.2 0.4 2.2 1.3 4.5 0.9 2.3 1.8 4 2 3.8 0.2 -0.2 -0.4 -2.2 -1.3 -4.5z m-4.3 -11.5 c-1.4 -3.6 -2.2 -3.3 -0.9 0.5 0.6 1.6 1.2 2.8 1.4 2.6 0.3 -0.2 0 -1.6 -0.5 -3.1z m-139.6 -11.4 c-0.5 -0.5 -1.8 2.6 -2.9 6.8 -0.3 1.4 0.3 0.5 1.4 -1.9 1.1 -2.4 1.8 -4.6 1.5 -4.9z m3.4 -7.4 c0.6 -1.8 0.7 -2.8 0.2 -2.3 -1 1.2 -2.5 5.5 -1.8 5.5 0.3 0 1 -1.5 1.6 -3.2z m5 -13 c0.6 -1.8 0.7 -2.8 0.2 -2.3 -1 1.2 -2.5 5.5 -1.8 5.5 0.3 0 1 -1.5 1.6 -3.2z m5 -13 c0.6 -1.8 0.7 -2.8 0.2 -2.3 -1 1.2 -2.5 5.5 -1.8 5.5 0.3 0 1 -1.5 1.6 -3.2z m8.6 -11.6 c1.1 -0.6 1.4 -1.2 0.8 -1.2 -0.7 0 -2.5 1.2 -4.1 2.8 -1.5 1.5 -1.9 2 -0.7 1.1 1.1 -0.9 2.9 -2.1 4 -2.7z"/>
  <path d="M288.3 367.8 c-1.8 -1.3 -3.8 -3.5 -4.4 -5 -0.6 -1.6 -1.8 -2.8 -2.5 -2.8 -0.8 0 -1.4 -0.7 -1.4 -1.5 0 -1.1 1.2 -1.5 4.4 -1.5 5.4 0 7.6 0.8 7.6 2.6 0 0.8 0.7 1.7 1.5 2 1.8 0.7 2 3.4 0.2 3.4 -0.7 0 -2.4 -0.7 -3.7 -1.6 l-2.5 -1.6 2.4 2.1 c2.3 2.1 2.8 2.1 68 2 36.1 -0.1 64.8 -0.3 63.9 -0.6 -2.2 -0.6 -2.4 -4.3 -0.3 -4.3 2.8 0 3.5 -4.9 3.5 -22.9 0 -20.6 -0.6 -22.7 -6.2 -23.6 -3.5 -0.6 -3.7 -0.9 -4.1 -4.8 l-0.4 -4.2 -0.1 4.3 -0.2 4.2 -13 0 -13 0 0 -8.6 0 -8.6 3 0.4 c1.7 0.3 3 0.1 3 -0.3 0 -0.4 1.9 -1 4.3 -1.2 2.8 -0.2 1.7 -0.4 -3 -0.5 l-7.3 -0.2 0 -5.5 c0 -4.1 0.4 -5.5 1.4 -5.5 0.8 0 1.7 0.8 1.9 1.8 0.3 0.9 0.5 -12.5 0.5 -29.8 0 -17.3 -0.2 -30.7 -0.5 -29.7 -0.2 0.9 -1.1 1.7 -1.9 1.7 -1.1 0 -1.4 -1.5 -1.4 -6.5 0 -6.4 0 -6.5 2.8 -6.4 1.5 0 2.1 0.3 1.5 0.6 -3.6 1.4 0.2 1.8 15.1 1.3 14.3 -0.4 16.7 -0.7 18.5 -2.4 1.2 -1.1 2.1 -2.3 2.1 -2.7 0 -0.4 -1.1 0.3 -2.5 1.6 -2.7 2.8 -5.5 3.3 -5.5 1 0 -0.8 1.1 -2.5 2.5 -3.9 2.5 -2.5 2.5 -2.5 2.5 -22.3 0 -10.9 -0.4 -20.3 -0.8 -20.9 -0.4 -0.7 -2.6 -1.7 -4.9 -2.4 -3.8 -1.2 -4.2 -1.6 -4.6 -4.9 l-0.4 -3.6 -0.1 3.8 c-0.2 3.5 -0.4 3.7 -3.7 3.7 -3.9 0 -5 -2.4 -1.5 -3.3 1.3 -0.3 2 -1.3 1.9 -2.9 -0.2 -2.3 -0.2 -2.3 -0.6 0 l-0.4 2.2 -58 0 c-50 0 -58.4 0.2 -60.9 1.5 -1.7 0.9 -3 1.8 -3 2.1 0 0.2 1.3 -0.2 3 -1.1 4 -2.1 6 -1.9 6 0.5 0 1.3 -0.7 2 -1.9 2 -1.2 0 -2.5 1.2 -3.3 3 -0.8 1.8 -2 3 -3.2 3 -1.6 0 -1.8 -0.5 -1.2 -3.2 0.4 -2.4 0.3 -2.9 -0.4 -1.8 -0.5 0.9 -0.9 9.2 -0.9 19.5 0.1 9.9 0.3 17.2 0.6 16.3 0.8 -3.3 3.3 -2.1 3.3 1.6 0 3.6 3.2 8.6 5.6 8.6 2.4 0 1.6 3.8 -0.8 4.3 -1.3 0.2 -0.4 0.5 2 0.6 3.9 0.1 4.3 0.3 4 2.3 -0.2 1.4 -0.9 2.2 -1.8 1.9 -0.8 -0.2 -3.4 -0.6 -5.8 -0.9 -3.5 -0.4 -5 -1.3 -8.1 -4.8 -2.5 -2.9 -4.7 -4.4 -6.2 -4.4 -1.3 0 -4.3 -0.9 -6.6 -1.9 -2.3 -1.1 -4.4 -1.7 -4.7 -1.5 -0.3 0.2 -0.4 0.1 -0.1 -0.3 0.3 -0.3 0 -1.2 -0.6 -2 -0.9 -1 -0.7 -1.3 0.6 -1.3 1.2 0 1.5 -0.5 1.1 -1.6 -0.3 -0.9 -0.9 -4 -1.2 -7 -0.6 -5 -0.5 -5.4 1.3 -5.4 1.7 0 2.1 0.8 2.6 4.6 0.3 2.6 1.3 5.3 2.3 6.3 1.7 1.5 1.7 1.5 0.5 -0.1 -1.8 -2.4 0 -2.3 2.7 0.2 1.2 1.1 3.1 2 4.4 1.9 1.3 0 1.7 -0.3 1 -0.6 -0.6 -0.2 -0.9 -0.9 -0.6 -1.4 0.3 -0.6 0.5 -8.1 0.5 -16.8 -0.2 -12.6 0.2 -16.7 1.5 -20 1.6 -4.1 5.7 -7.1 9.6 -7.1 1 0 1.8 -0.4 1.8 -1 0 -0.7 19.5 -1 56.5 -1 44.5 0 56.5 -0.3 56.5 -1.2 0 -0.9 0.4 -0.8 1 0.2 0.6 0.9 1 1 1 0.3 0 -2.7 -4.4 -4.3 -11.7 -4.3 -6.6 0 -7.3 -0.2 -7.3 -2 0 -1.8 0.7 -2 7 -2 6.3 0 7 -0.2 7 -2 0 -2.4 0.1 -2.4 4.8 -0.3 2 0.9 4.1 1.5 4.5 1.4 0.5 -0.1 0.6 0.3 0.3 0.8 -0.3 0.5 0.1 1.4 0.9 2.1 0.8 0.7 1.5 1.9 1.5 2.7 0 0.8 0.4 1.2 0.9 0.9 0.5 -0.4 0.7 0.2 0.5 1.1 -0.4 1.4 0.8 2.4 5.1 4.2 3.1 1.3 6.1 3.4 6.7 4.5 0.6 1.2 1.6 2.4 2.2 2.8 0.7 0.5 1.1 8 1.1 23.5 0 25.8 -0.3 27.2 -7 31 -3.6 2 -5.3 2.3 -17.3 2.3 l-13.3 0 0.3 35 c0.3 34.2 0.3 34.9 -1.7 35.3 -1.1 0.2 0.1 0.2 2.6 0 9.7 -0.9 19.2 4.3 20.5 11.3 0.5 2.7 1.1 3.3 4.2 3.8 4.7 0.7 7.8 2.9 9.9 6.9 1.3 2.6 1.7 7.1 2.1 22.3 0.5 24 -0.6 29.2 -6.8 32.4 -3.8 1.9 -5.8 2 -69.7 2 l-65.8 0 -3.2 -2.2z m141.6 -21.3 c-0.2 -13.2 -0.6 -12 -1.2 2.8 -0.2 5.9 0 10.2 0.4 9.5 0.5 -0.7 0.8 -6.2 0.8 -12.3z m-21.5 -41.1 c1.2 -0.5 1.3 -1.1 0.6 -2.5 -0.7 -1.1 -1.6 -1.6 -2.7 -1.2 -1.1 0.4 -1.4 0.3 -0.9 -0.5 0.5 -0.8 -0.4 -1.2 -3.1 -1.2 -4.2 0 -6.3 1.4 -6.3 4.2 0 1.5 0.9 1.8 5.4 1.8 3 0 6.1 -0.3 7 -0.6z m-12.6 -6.1 c-1 -0.2 -2.6 -0.2 -3.5 0 -1 0.3 -0.2 0.5 1.7 0.5 1.9 0 2.7 -0.2 1.8 -0.5z m34.2 -93.3 c0 -1.3 -0.1 -1.3 -1 0 -0.5 0.8 -1 2.2 -1 3 0 1.3 0.1 1.3 1 0 0.5 -0.8 1 -2.2 1 -3z m0 -24.8 c0 -9.6 -0.4 -13.3 -1.4 -14.8 -1.3 -1.7 -1.4 -1.5 -0.6 2.1 0.5 2.2 1 8.8 1 14.8 0 5.9 0.2 10.7 0.5 10.7 0.3 0 0.5 -5.8 0.5 -12.8z"/>
  <path d="M756.1 368.3 c0 -0.4 0.4 -1.7 0.9 -2.8 0.8 -1.9 0.9 -1.9 0.9 0.2 0.1 1.2 -0.3 2.5 -0.9 2.8 -0.5 0.3 -1 0.3 -0.9 -0.2z"/>
  <path d="M179.9 355.3 c-5.6 -0.9 -6.4 -3.1 -6.7 -19.7 -0.2 -8.3 -0.1 -17 0.3 -19.4 l0.6 -4.3 10.7 0.3 10.7 0.3 0.3 7.3 c0.2 5.9 0 7.2 -1.3 7.2 -0.8 0 -1.6 -0.8 -1.7 -1.7 -0.1 -1 -0.4 3.8 -0.8 10.7 -0.4 6.9 -0.3 13.4 0.2 14.5 0.7 1.8 0.7 1.7 0.6 -0.5 -0.2 -4.6 0.2 -6 1.7 -6 1.6 0 2 3.4 0.9 8.9 -0.6 3.1 -0.7 3.1 -6.8 3 -3.3 -0.1 -7.3 -0.4 -8.7 -0.6z m7.5 -6 c0.8 -4.5 0.5 -25.6 -0.4 -27.3 -0.5 -1 -2 -1.5 -3.7 -1.4 -1.5 0.1 -3.6 0.3 -4.5 0.3 -1.6 0.1 -1.8 1.4 -1.8 13.1 0 12.6 0.1 13.2 2.5 15.5 3.4 3.5 7.2 3.3 7.9 -0.2z m5.3 -31 c-0.3 -1 -0.5 -0.2 -0.5 1.7 0 1.9 0.2 2.7 0.5 1.8 0.2 -1 0.2 -2.6 0 -3.5z"/>
  <path d="M438.7 344 c-0.7 -2.8 0.3 -6 1.9 -6 1 0 1.4 1.3 1.4 4 0 4.3 -2.3 5.7 -3.3 2z"/>
  <path d="M524.7 314.4 c-0.3 -0.4 -0.6 -23.3 -0.7 -50.9 0 -44.8 0.1 -50.3 1.5 -50.9 3.3 -1.2 41.9 -0.4 45.2 0.9 3.7 1.6 6.3 6 6.3 11 0 3.7 -2.4 5.1 -3.3 1.8 -0.3 -1 -0.5 15.8 -0.5 37.2 0 21.5 0.2 38.2 0.5 37.3 0.2 -1 1.1 -1.8 2 -1.8 1.2 0 1.5 0.9 1.1 4.3 -0.6 5.2 -4.6 9.6 -9.7 10.8 -4.2 1 -41.5 1.2 -42.4 0.3z m42.6 -10.6 c1.6 -2 1.7 -4.9 1.5 -40.9 -0.3 -38.5 -0.3 -38.9 -2.5 -41.1 -1.9 -1.8 -2.6 -2 -4.7 -1 -2.1 0.9 -2.5 0.8 -2.9 -0.6 -0.3 -0.9 -0.5 2.7 -0.6 8.1 -0.1 9 -0.2 9.7 -2.1 9.7 -1.1 0 -2 0.7 -2 1.5 0 0.8 -0.9 1.5 -2 1.5 -1.9 0 -2 -0.7 -2 -9.5 l0 -9.4 -3.2 -0.6 c-1.8 -0.4 -5.8 -0.5 -8.8 -0.3 l-5.5 0.3 -0.3 32 c-0.1 17.6 0 33.5 0.3 35.3 l0.6 3.2 6.2 0 c3.7 0 6.9 -0.5 7.6 -1.2 1.1 -1.1 1.3 -1 0.7 0.2 -0.4 0.8 0.1 0.5 1.2 -0.7 2.7 -3.1 3.2 -2.9 3.2 1.1 0 4.1 -1 4.6 -9.6 4.6 -5.7 0 -6.4 0.2 -6.4 2 0 1.3 -0.7 2 -1.8 2 -1.5 0 -1.8 0.6 -1.4 2.9 0.5 3.8 1.5 4 18.7 3.4 12.6 -0.4 14.2 -0.6 15.8 -2.5z"/>
  <path d="M299 292.1 c0 -0.5 0.4 -1.1 0.9 -1.3 0.6 -0.2 1.1 -15 1.2 -37.3 0.1 -33.4 0 -37 -1.5 -37.3 -3.2 -0.7 -1.7 -3.2 1.9 -3.2 l3.5 0 0 40 0 40 -3 0 c-1.6 0 -3 -0.4 -3 -0.9z"/>
  <path d="M143.7 266.4 c-1.9 -2 1 -15.6 3.9 -17.9 0.6 -0.5 1.4 -3.2 1.6 -6 0.3 -2.7 1.5 -8.5 2.8 -12.7 2.2 -7.3 2.6 -7.8 5.2 -7.8 2.7 0 2.8 -0.2 2.8 -4.5 0 -4.5 0 -4.5 3.5 -4.5 3.9 0 5 2.4 1.5 3.3 -1.1 0.3 -2 1.1 -1.9 1.9 0 1 0.2 1 0.6 0.1 0.2 -0.7 2.3 -1.4 4.6 -1.4 2.3 -0.1 3.4 -0.3 2.5 -0.6 -1 -0.2 -1.8 -1.1 -1.8 -1.9 0 -1.2 1 -1.4 4.3 -1.2 3.7 0.3 4.4 0.7 5.9 3.8 2.9 6 13.9 44 13.6 46.8 l-0.3 2.7 -24.1 0.3 c-13.2 0.1 -24.3 -0.1 -24.7 -0.4z m10.6 -4.1 c-1.3 -0.2 -3.5 -0.2 -5 0 -1.6 0.2 -0.5 0.4 2.2 0.4 2.8 0 4 -0.2 2.8 -0.4z m-4.9 -5.8 c0.5 -2.7 1.2 -3.5 2.8 -3.5 1.6 0 1.9 0.4 1.4 2.4 -0.4 1.7 -0.1 2.6 1 3 2.6 1 26.2 0.7 26.9 -0.4 0.8 -1.3 -7.8 -32.6 -9.8 -35.7 -1 -1.5 -5.3 -1.7 -6.2 -0.3 -0.3 0.6 -0.1 1 0.5 1 0.7 0 1 0.6 0.7 1.4 -0.8 2.1 3.5 15.6 4.7 14.9 0.5 -0.4 0.7 0.1 0.3 1.1 -0.4 1 -0.7 2.2 -0.7 2.7 0 0.5 -0.7 0.9 -1.5 0.9 -0.9 0 -1.5 -0.9 -1.5 -2.5 0 -1.4 -0.3 -2.5 -0.8 -2.5 -0.4 0 -0.6 2 -0.4 4.5 l0.4 4.5 -4.8 0.1 c-2.7 0 -4.3 0.3 -3.6 0.6 0.6 0.2 1.2 1.1 1.2 1.9 0 1.5 -1.3 1.7 -6.7 1.4 -3.4 -0.2 -3.7 0.2 -5.8 6.9 -0.4 1.5 -0.3 2.1 0.3 1.7 0.5 -0.3 1.3 -2.2 1.6 -4.1z m37 -3.9 c-0.3 -1.5 -0.8 -2.5 -1.1 -2.3 -0.2 0.3 -0.1 1.7 0.3 3.1 0.3 1.5 0.8 2.5 1.1 2.3 0.2 -0.3 0.1 -1.7 -0.3 -3.1z m-23.9 -9.6 c0.3 -0.4 -0.2 -2.5 -0.9 -4.6 -0.8 -2.2 -1.5 -3.1 -1.5 -2.2 -0.1 0.9 -0.8 2.4 -1.7 3.3 -0.9 0.9 -1.4 1.9 -1 2.2 0.3 0.3 0.1 1.1 -0.4 1.8 -0.7 0.8 -0.2 1 2 0.7 1.7 -0.2 3.2 -0.8 3.5 -1.2z m19.9 -3.4 c-0.3 -1.5 -0.8 -2.5 -1.1 -2.3 -0.2 0.3 -0.1 1.7 0.3 3.1 0.3 1.5 0.8 2.5 1.1 2.3 0.2 -0.3 0.1 -1.7 -0.3 -3.1z m-27.5 -2.1 l0 -2 -0.9 2 c-0.5 1.1 -0.9 2.7 -0.9 3.5 -0.1 1.3 0 1.3 0.9 0 0.5 -0.8 0.9 -2.4 0.9 -3.5z"/>
  <path d="M868.2 251 c1.1 -4.4 3.8 -5.5 3.8 -1.6 0 3.7 -1 5.6 -3 5.6 -1.6 0 -1.7 -0.4 -0.8 -4z"/>
  <path d="M66.7 246.2 c-0.5 -0.6 -0.5 -3.2 -0.1 -5.7 0.5 -3.3 1.1 -4.5 2.4 -4.5 1.2 0 1.7 0.9 1.8 3 0 2 -0.3 2.8 -1 2.4 -0.7 -0.5 -0.9 0 -0.6 1.4 0.4 1.2 0.2 2 -0.2 1.7 -0.5 -0.3 -1 0.3 -1.2 1.2 -0.3 1.3 -0.6 1.5 -1.1 0.5z"/>
  <path d="M60.7 241 c-0.3 -1.1 -0.1 -1.8 0.4 -1.4 0.5 0.3 0.9 -0.2 0.9 -1.1 0 -0.9 0.5 -1.3 1 -1 0.6 0.3 1 1.7 1 3.1 0 2.9 -2.5 3.3 -3.3 0.4z"/>
  <path d="M64.4 229.3 c0.1 -1.8 1.9 -4.3 3 -4.3 0.3 0 0.6 1.4 0.6 3 0 2.3 -0.5 3 -1.9 3 -1.2 0 -1.8 -0.7 -1.7 -1.7z"/>
  <path d="M75.8 220.4 c-1.6 -1.5 -0.8 -5.4 1 -5.4 1.1 0 1.8 0.7 1.8 1.9 0 1.1 -0.3 1.8 -0.7 1.5 -0.4 -0.2 -0.9 0.3 -1.1 1.2 -0.2 0.9 -0.6 1.2 -1 0.8z"/>
  <path d="M879.2 217 c0.6 -2.2 1.4 -4 1.9 -4 0.5 0 0.9 -1 0.9 -2.2 0 -1.3 2.7 -10.6 6 -20.7 3.3 -10.1 5.7 -18.8 5.4 -19.2 -0.3 -0.5 0 -0.9 0.6 -0.9 0.7 0 1 -0.7 0.6 -1.5 -0.3 -0.8 -0.1 -1.5 0.5 -1.5 0.6 0 0.9 -0.7 0.5 -1.5 -0.3 -0.8 -0.1 -1.5 0.5 -1.5 0.6 0 0.9 -0.7 0.5 -1.5 -0.3 -0.8 -0.1 -1.5 0.5 -1.5 0.6 0 0.8 -0.9 0.4 -2.1 -0.5 -1.6 -0.4 -1.9 0.6 -1.4 0.9 0.6 1.1 0.3 0.6 -0.8 -0.5 -1.5 0.1 -1.7 4.3 -1.7 4.2 0 5 0.3 5 1.9 0 1.9 -2.9 2.4 -4.1 0.8 -0.3 -0.5 -1.5 2.1 -2.5 5.7 -1 3.6 -2.2 6.6 -2.6 6.6 -0.4 0 -0.5 0.7 -0.2 1.5 0.4 0.8 0.1 1.5 -0.5 1.5 -0.6 0 -0.8 0.7 -0.5 1.5 0.4 0.8 0.1 1.5 -0.5 1.5 -0.6 0 -0.8 0.7 -0.5 1.5 0.4 0.8 0.1 1.5 -0.5 1.5 -0.6 0 -0.8 0.7 -0.5 1.5 0.4 0.8 0.1 1.5 -0.5 1.5 -0.6 0 -0.8 0.7 -0.5 1.5 0.4 0.8 0.1 1.5 -0.5 1.5 -0.6 0 -0.8 0.7 -0.5 1.5 0.4 0.8 0.1 1.5 -0.6 1.5 -0.6 0 -0.9 0.4 -0.6 0.9 0.5 0.8 -1.1 6.5 -3.1 11.1 -0.3 0.8 -0.7 1.8 -0.8 2.3 -0.2 0.4 -0.4 0.9 -0.5 1.2 -0.1 0.3 -0.4 1 -0.5 1.5 -0.1 0.6 -0.4 1.2 -0.5 1.5 -0.3 0.6 -0.5 1.2 -1.5 4.3 -0.4 1.2 -1.1 2.2 -1.6 2.2 -0.5 0 -0.9 1.1 -0.9 2.4 0 3.7 -1 5.6 -3 5.6 -1.6 0 -1.7 -0.4 -0.8 -4z"/>
  <path d="M69.5 215.2 c0 -2.5 2.4 -6.2 3.9 -6.2 0.8 0 0.7 3.9 0 6.8 -0.9 3.3 -4 2.9 -3.9 -0.6z"/>
  <path d="M950.4 209.5 c-3.1 -4.1 -6.1 -7.5 -6.6 -7.5 -0.5 0 -0.6 -0.5 -0.3 -1 0.3 -0.6 -0.1 -1.3 -0.9 -1.6 -0.9 -0.3 -1.6 -1.2 -1.6 -2 0 -0.7 -0.9 -1.8 -1.9 -2.3 -1.4 -0.8 -2.5 -0.6 -4.5 1 -1.4 1.1 -2.4 2.5 -2 3 0.3 0.5 0.1 0.8 -0.4 0.7 -0.5 -0.2 -2.1 1.2 -3.6 3 -1.5 1.7 -3.4 3.2 -4.3 3.2 -1.6 0 -4.5 -2.5 -3.8 -3.2 0.3 -0.3 0 -2.7 -0.5 -5.4 -0.6 -2.7 -1.3 -6.5 -1.5 -8.4 -0.3 -1.9 -1.6 -9.2 -2.8 -16.2 -1.3 -7 -2 -12.9 -1.7 -13 0.4 -0.2 0.5 -1.8 0.3 -3.5 -0.5 -3.1 -0.8 -3.3 -4.3 -3.3 -2.1 0 -5.1 -0.7 -6.6 -1.5 -1.6 -0.8 -3.6 -1.5 -4.5 -1.5 -0.9 0 -3 -0.7 -4.7 -1.6 -4.3 -2.1 -4.2 -4.8 1 -20.6 l4.2 -12.8 4.1 0 c2.2 0 9.5 1.8 16.2 4.1 l12.3 4.1 0 3.8 c0 2 -0.7 5.7 -1.5 8.1 -2.2 6.1 -3.4 11.9 -2.6 11.9 0.4 0 1.3 -2.2 2 -5 1.1 -4.2 1.7 -5 3.6 -5 l2.3 0 -1.8 5.7 -1.8 5.7 17.2 10.6 c9.4 5.8 18.7 11.5 20.6 12.6 1.9 1.1 3.5 2.6 3.5 3.4 0 1.8 -5.7 4.9 -10.3 5.6 -2 0.3 -4.1 0.9 -4.7 1.2 -0.5 0.4 -1.3 0.7 -1.7 0.7 -0.3 0 -1 0.3 -1.4 0.8 -0.7 0.6 1 1.1 2.9 0.8 0.5 -0.1 0.6 0.3 0.2 0.9 -0.3 0.6 -1.2 0.7 -1.8 0.3 -1.4 -0.8 4.2 6.8 5.7 7.9 0.6 0.4 0.7 0.8 0.3 0.8 -0.5 0 1.2 2.9 3.7 6.5 2.5 3.6 4.6 7 4.6 7.5 0 0.5 -1.8 1.9 -4 3.1 -2.2 1.3 -4 2.7 -4 3.3 0 0.5 -0.3 0.6 -0.6 0.3 -0.4 -0.3 -1.6 0 -2.8 0.8 -1.1 0.8 -2.4 1.5 -2.8 1.5 -0.4 0 -3.3 -3.4 -6.4 -7.5z"/>
  <path d="M767.4 207.3 c0.1 -1.8 1.9 -4.3 3 -4.3 0.3 0 0.6 1.4 0.6 3 0 2.3 -0.5 3 -1.9 3 -1.2 0 -1.8 -0.7 -1.7 -1.7z"/>
  <path d="M78.3 192.5 c0 -1.4 0.4 -2.2 0.9 -1.9 0.6 0.4 0.7 -0.2 0.3 -1.6 -0.5 -1.4 -0.3 -2 0.3 -1.6 0.6 0.3 1.2 -0.2 1.5 -1.1 0.8 -3.4 2 1.4 1.3 5.2 -0.8 4.3 -4.3 5.1 -4.3 1z"/>
  <path d="M845.7 180.5 c-1.8 -2.5 -1.8 -2.5 0.8 -2.5 2 0 2.5 0.5 2.5 2.5 0 3.1 -1 3.1 -3.3 0z"/>
  <path d="M90.8 180.4 c-0.5 -0.4 -0.8 -1.8 -0.8 -3.1 0 -3.4 3.5 -3.1 3.7 0.4 0.1 1.7 -0.2 2.1 -0.7 1.3 -0.6 -1 -0.9 -0.9 -1.1 0.4 -0.2 1 -0.7 1.4 -1.1 1z"/>
  <path d="M837 176.8 c0 -0.5 -0.5 -0.8 -1.2 -0.6 -1.3 0.5 -4.8 -2.1 -4.8 -3.4 0 -0.5 1.6 -0.8 3.5 -0.8 1.9 0 3.5 0.5 3.5 1 0 0.6 0.9 1 2 1 3.1 0 2.6 3.5 -0.5 3.6 -1.4 0.1 -2.5 -0.3 -2.5 -0.8z"/>
  <path d="M667 174 c0 -2.3 0.5 -3 1.9 -3 2.1 0 2.3 2.7 0.4 4.8 -1.8 1.9 -2.3 1.5 -2.3 -1.8z"/>
  <path d="M786.5 173.7 c-1.2 -2.7 0.1 -8.3 2.4 -10.6 1.7 -1.7 3.4 -2.1 8.1 -2.1 5.2 0 6 0.3 6 1.9 0 1.9 -1.7 2 -6.9 0.5 -1.9 -0.6 -2.2 -0.4 -1.6 0.6 0.6 1 0.4 1.2 -0.9 0.7 -1.3 -0.5 -1.8 0 -2.3 2.3 -0.3 1.6 -0.9 2.7 -1.3 2.5 -0.5 -0.3 -0.6 0.5 -0.2 1.7 0.3 1.4 0.1 1.9 -0.6 1.4 -0.6 -0.3 -1.2 0.2 -1.5 1.1 -0.4 1.7 -0.4 1.7 -1.2 0z"/>
  <path d="M825.6 172.9 c0.3 -0.5 -0.2 -0.9 -1.1 -0.9 -0.9 0 -1.3 -0.4 -1 -1 0.3 -0.5 1.9 -1 3.6 -1 3.8 0 4.2 3.4 0.4 3.6 -1.4 0.1 -2.2 -0.2 -1.9 -0.7z"/>
  <path d="M87.4 169.3 c0.1 -1.8 1.9 -4.3 3 -4.3 0.3 0 0.6 1.4 0.6 3 0 2.3 -0.5 3 -1.9 3 -1.2 0 -1.8 -0.7 -1.7 -1.7z"/>
  <path d="M94.8 170.4 c-1.6 -1.5 -0.8 -5.4 1 -5.4 1.1 0 1.8 0.7 1.8 1.9 0 1.1 -0.3 1.8 -0.7 1.5 -0.4 -0.2 -0.9 0.3 -1.1 1.2 -0.2 0.9 -0.6 1.2 -1 0.8z"/>
  <path d="M835 169.6 c0 -0.7 0.9 -1.6 2 -1.9 1.1 -0.3 1.8 -0.1 1.4 0.4 -0.3 0.5 0.2 0.9 1.1 0.9 0.9 0 1.3 0.5 1 1 -0.9 1.5 -5.5 1.2 -5.5 -0.4z"/>
  <path d="M810 168.1 c1.3 -0.9 1.2 -1.1 -0.3 -1.1 -1 0 -1.5 -0.4 -1.2 -1 1 -1.6 5.5 -1.2 5.5 0.5 0 0.8 -0.4 1.5 -0.9 1.5 -0.5 0 -1.8 0.3 -2.8 0.6 -1.5 0.5 -1.5 0.4 -0.3 -0.5z"/>
  <path d="M825 166.3 c0 -1.2 0.8 -1.8 2.5 -1.9 1.4 -0.1 2.2 0.2 1.9 0.7 -0.3 0.5 0.2 0.9 1.1 0.9 0.9 0 1.3 0.5 1 1 -0.3 0.6 -1.9 1 -3.6 1 -2.1 0 -2.9 -0.5 -2.9 -1.7z"/>
  <path d="M784.9 160.7 c0.6 -0.8 0.9 -1.6 0.6 -1.8 -0.2 -0.3 0.5 -0.5 1.5 -0.6 1.4 -0.1 2 0.5 2 1.8 0 1.4 -0.7 1.9 -2.6 1.9 -2.1 0 -2.4 -0.3 -1.5 -1.3z"/>
  <path d="M805.6 160.5 c-0.8 -0.8 -2.6 -1.5 -4 -1.5 -1.9 0 -2.6 -0.5 -2.6 -1.9 0 -1.9 2.9 -2.4 4.1 -0.8 0.4 0.5 1.8 1 3.2 1 1.4 0.1 2.3 0.6 2 1.1 -0.3 0.5 0 0.7 0.8 0.4 1.3 -0.4 3.9 1.3 3.9 2.6 0 1.3 -5.9 0.5 -7.4 -0.9z"/>
  <path d="M98 157 c0 -2 0.5 -3 1.5 -3 0.8 0 1.5 -0.9 1.5 -2 0 -1.5 -0.7 -2 -2.6 -2 -2.1 0 -2.4 -0.3 -1.5 -1.3 0.6 -0.8 0.9 -1.7 0.6 -2 -0.3 -0.4 -0.2 -0.5 0.2 -0.2 0.3 0.3 1.2 0 2 -0.6 1 -0.9 1.3 -0.6 1.3 1.5 0 2.2 0.4 2.6 3 2.6 1.7 0 3 0.3 3 0.6 0 1 -2.7 3.3 -3.3 2.8 -0.3 -0.3 -1 0.4 -1.7 1.5 -0.6 1.2 -0.8 2.1 -0.5 2.1 0.4 0 0 0.7 -0.9 1.5 -2.1 2.2 -2.6 1.9 -2.6 -1.5z"/>
  <path d="M92.4 156.3 c0.1 -1.8 1.9 -4.3 3 -4.3 0.3 0 0.6 1.4 0.6 3 0 2.3 -0.5 3 -1.9 3 -1.2 0 -1.8 -0.7 -1.7 -1.7z"/>
  <path d="M446.2 151.9 c0.3 -3.1 0.6 -3.4 4.1 -3.7 2 -0.2 3.7 -0.1 3.7 0.2 0 0.3 -1.1 1.7 -2.5 3.2 -1.4 1.5 -2.5 2.3 -2.5 1.9 0 -0.4 -0.7 -0.2 -1.6 0.6 -1.4 1.1 -1.5 0.9 -1.2 -2.2z"/>
  <path d="M440.4 150.3 c0.2 -1.6 0.4 -3.1 0.5 -3.5 0 -0.5 0.7 -0.7 1.4 -0.5 0.6 0.1 1.1 -0.3 1 -0.8 -0.1 -0.6 0.7 -1.1 1.8 -1.1 1.2 0 1.9 0.7 1.9 1.8 0 1 -0.4 1.8 -0.9 1.8 -0.5 0 -1.2 1.1 -1.5 2.5 -0.9 3.7 -4.6 3.5 -4.2 -0.2z"/>
  <path d="M266.7 147 c0.3 -1.2 0.8 -1.8 1.1 -1.5 0.3 0.2 1.1 0 1.9 -0.6 1 -0.9 1.3 -0.6 1.3 1.5 0 2.1 -0.5 2.6 -2.4 2.6 -1.9 0 -2.3 -0.4 -1.9 -2z"/>
  <path d="M715.6 135.4 c-2.4 -1.7 -1.9 -2.4 1.9 -2.4 2.7 0 3.5 0.4 3.5 1.8 0 2 -3 2.4 -5.4 0.6z"/>
  <path d="M675.4 129.9 c-0.1 -1.7 0.2 -2.5 0.6 -1.8 0.6 0.8 1.2 0.5 2.1 -1.2 0.7 -1.3 1.3 -2.7 1.4 -3.1 0 -0.5 0.5 -0.8 1 -0.9 0.6 0 1.6 -0.5 2.3 -1.1 0.9 -0.8 1.2 -0.4 1.2 1.7 0 1.8 -0.6 2.8 -2 3.2 -1.4 0.4 -2 1.4 -2 3.4 0 2.3 -0.4 2.9 -2.2 2.9 -1.9 0 -2.3 -0.6 -2.4 -3.1z"/>
  <path d="M700.6 130.4 c-2.4 -1.7 -1.9 -2.4 1.9 -2.4 2.7 0 3.5 0.4 3.5 1.8 0 2 -3 2.4 -5.4 0.6z"/>
  <path d="M886.8 124.8 c-4.5 -2.1 -4.9 -3.8 -1 -3.8 3.6 0 5.4 1.3 5 3.6 -0.3 1.9 -0.4 1.9 -4 0.2z"/>
  <path d="M877.5 121.5 c-11.6 -4.2 -45 -14.3 -45.6 -13.9 -0.5 0.3 -0.9 0 -0.9 -0.6 0 -0.7 -0.7 -1 -1.5 -0.6 -0.8 0.3 -1.5 0.1 -1.5 -0.5 0 -0.6 -0.7 -0.9 -1.5 -0.5 -0.8 0.3 -1.5 0.1 -1.5 -0.5 0 -0.6 -0.7 -0.9 -1.5 -0.5 -0.8 0.3 -1.5 0.1 -1.5 -0.5 0 -0.6 -0.7 -0.9 -1.5 -0.5 -0.8 0.3 -1.5 0.1 -1.5 -0.5 0 -0.6 -0.7 -0.9 -1.5 -0.6 -0.8 0.4 -1.7 0.2 -2 -0.3 -0.3 -0.5 -1.2 -0.7 -2 -0.3 -0.8 0.3 -1.5 0 -1.5 -0.6 0 -0.6 -0.7 -0.8 -1.5 -0.5 -0.8 0.4 -1.5 0.1 -1.5 -0.5 0 -0.6 -0.7 -0.8 -1.5 -0.5 -0.8 0.4 -1.5 0.1 -1.5 -0.5 0 -0.6 -0.7 -0.8 -1.5 -0.5 -0.8 0.4 -1.5 0.1 -1.5 -0.5 0 -0.6 -0.7 -0.8 -1.5 -0.5 -0.8 0.4 -1.5 0.1 -1.5 -0.5 0 -0.6 -0.7 -0.8 -1.5 -0.5 -0.8 0.4 -1.5 0.1 -1.5 -0.5 0 -0.6 -0.7 -0.8 -1.5 -0.5 -0.8 0.4 -1.5 0.2 -1.5 -0.4 0 -0.6 -1 -0.8 -2.2 -0.4 -1.6 0.4 -1.9 0.2 -1.3 -0.8 0.6 -1 0.4 -1.2 -0.7 -0.7 -0.9 0.3 -1.9 0.3 -2.3 -0.1 -0.4 -0.4 -1.1 -0.8 -1.6 -0.8 -0.5 -0.1 -1.1 -0.3 -1.4 -0.4 -0.3 -0.1 -0.9 -0.4 -1.5 -0.5 -0.5 -0.1 -1.2 -0.4 -1.5 -0.5 -0.3 -0.1 -0.9 -0.4 -1.5 -0.5 -0.5 -0.1 -1.2 -0.4 -1.5 -0.5 -0.3 -0.1 -0.9 -0.3 -1.4 -0.4 -0.5 0 -1.2 -0.4 -1.6 -0.8 -0.4 -0.4 -1.3 -0.4 -2.1 -0.1 -0.8 0.3 -1.4 0 -1.4 -0.6 0 -0.6 -0.7 -0.8 -1.5 -0.5 -0.8 0.4 -1.5 0.1 -1.5 -0.5 0 -0.6 -0.7 -0.8 -1.5 -0.5 -0.8 0.4 -1.5 0.1 -1.5 -0.5 0 -0.6 -0.7 -0.8 -1.5 -0.5 -0.8 0.4 -1.5 0.1 -1.5 -0.5 0 -0.6 -0.7 -0.8 -1.5 -0.5 -0.8 0.4 -1.5 0.1 -1.5 -0.6 0 -0.7 -0.7 -1 -1.5 -0.6 -0.8 0.3 -1.5 0.1 -1.5 -0.5 0 -0.6 -0.6 -0.9 -1.4 -0.6 -0.8 0.3 -1.7 0.3 -2.1 -0.1 -0.4 -0.4 -1.1 -0.8 -1.6 -0.8 -0.5 -0.1 -1.1 -0.3 -1.4 -0.4 -0.3 -0.1 -0.9 -0.4 -1.5 -0.5 -0.5 -0.1 -1.2 -0.4 -1.5 -0.5 -0.3 -0.1 -0.9 -0.4 -1.5 -0.5 -0.5 -0.1 -1.2 -0.4 -1.5 -0.5 -0.3 -0.1 -0.9 -0.4 -1.5 -0.5 -0.5 -0.1 -1.2 -0.4 -1.5 -0.5 -0.3 -0.1 -0.9 -0.4 -1.5 -0.5 -0.5 -0.1 -1.2 -0.4 -1.5 -0.5 -0.3 -0.1 -0.9 -0.3 -1.4 -0.4 -0.5 0 -1.2 -0.4 -1.6 -0.8 -0.4 -0.4 -1.3 -0.4 -2.1 -0.1 -0.8 0.3 -1.4 0 -1.4 -0.6 0 -0.6 -0.7 -0.8 -1.5 -0.5 -0.8 0.4 -1.5 0.1 -1.5 -0.5 0 -0.6 -0.7 -0.8 -1.5 -0.5 -0.8 0.4 -1.5 0.1 -1.5 -0.5 0 -0.6 -0.7 -0.8 -1.5 -0.5 -0.8 0.4 -1.5 0.1 -1.5 -0.6 0 -0.6 -0.4 -0.8 -1 -0.5 -0.5 0.3 -2 0.1 -3.2 -0.6 -1.3 -0.6 -2 -0.8 -1.6 -0.4 0.9 0.9 -0.9 4.5 -2.2 4.5 -1.3 0 -1.3 -6.7 0 -7.5 0.6 -0.3 1 -1.7 1 -3.1 0 -1.7 0.5 -2.4 2 -2.4 1.5 0 2 0.7 2 2.5 0 1.8 0.4 2.3 1.5 1.9 0.8 -0.4 1.5 -0.2 1.5 0.2 0 0.8 1.7 1.2 7.3 1.7 0.9 0.1 1.7 0.4 1.7 0.7 0 0.4 3.6 1.7 8 2.9 4.4 1.3 8 2.7 8 3.2 0 0.5 0.7 0.6 1.5 0.3 0.8 -0.4 1.5 -0.1 1.5 0.5 0 0.6 0.7 0.8 1.5 0.5 0.8 -0.4 1.5 -0.1 1.5 0.5 0 0.6 0.7 0.8 1.5 0.5 0.8 -0.4 1.5 -0.1 1.5 0.5 0 0.6 0.7 0.8 1.5 0.5 0.8 -0.4 1.5 -0.1 1.5 0.6 0 0.6 0.5 0.8 1.1 0.4 0.6 -0.3 1.5 0 2 0.7 0.7 1.2 0.9 1.1 0.9 -0.1 0.1 -1.1 0.4 -1 1.5 0.4 0.9 1.2 1.5 1.5 1.5 0.7 0 -1.1 0.3 -1.1 1.5 -0.1 0.8 0.7 1.5 0.9 1.5 0.5 0 -0.4 0.6 -0.3 1.3 0.3 0.6 0.6 1.5 1.1 2 1.1 0.4 0.1 0.9 0.2 1.2 0.2 0.3 0.1 1 0.3 1.5 0.4 0.6 0.1 1.2 0.4 1.5 0.5 0.3 0.1 0.8 0.3 1.3 0.4 4.5 1.1 12.2 4.2 12.2 4.8 0 0.5 0.5 0.6 1.1 0.2 0.6 -0.3 1.5 0 2 0.7 0.7 1.2 0.9 1.1 0.9 -0.1 0.1 -1.1 0.4 -1 1.5 0.4 1.1 1.4 1.5 1.6 1.5 0.5 0.1 -1 0.5 -0.9 1.5 0.5 1.1 1.4 1.5 1.6 1.5 0.5 0.1 -1 0.5 -0.9 1.5 0.5 1.1 1.4 1.5 1.6 1.5 0.5 0.1 -1.2 0.3 -1.1 1.3 0.1 0.7 0.9 2 1.4 3.1 1.2 1.3 -0.3 1.6 0 1.1 0.9 -0.5 0.7 -0.4 1 0.2 0.6 1.2 -0.7 20.6 5.2 21.1 6.4 0.2 0.4 1 0.5 1.8 0.2 0.8 -0.3 1.4 0 1.4 0.6 0 0.6 0.7 0.8 1.5 0.5 0.8 -0.4 1.5 -0.1 1.5 0.5 0 0.6 0.7 0.8 1.5 0.5 0.8 -0.4 1.5 -0.1 1.5 0.5 0 0.6 0.7 0.8 1.5 0.5 0.8 -0.4 1.5 -0.1 1.5 0.5 0 0.6 0.7 0.8 1.5 0.5 0.8 -0.4 1.5 -0.1 1.5 0.5 0 0.6 0.7 0.8 1.5 0.5 0.8 -0.4 1.5 -0.1 1.5 0.6 0 0.6 0.4 0.9 0.9 0.6 1 -0.6 9.9 2.2 11.9 3.7 0.6 0.5 1.2 0.6 1.2 0.2 0 -0.4 0.6 -0.3 1.3 0.2 0.6 0.6 4.2 2 8 3.2 5.2 1.8 6.7 2.7 6.7 4.2 0 1 -0.1 1.9 -0.2 1.8 -0.2 0 -0.7 -0.2 -1.3 -0.4z"/>
  <path d="M693 72.8 c-5.2 -1.7 -10.3 -3.4 -11.2 -3.9 -1 -0.5 -2.7 -0.9 -3.8 -0.9 -3.5 0 -2.6 -8.6 2.4 -22.5 3.9 -10.9 4.6 -12 6.9 -12.3 1.5 -0.2 9.2 1.7 17.2 4.3 14 4.4 14.5 4.7 14.5 7.3 0 1.5 -2.1 9.1 -4.7 17 l-4.8 14.2 -3.5 -0.1 c-1.9 0 -7.8 -1.4 -13 -3.1z"/>
 </g>
 <g fill="#8b82aa">
  <path d="M65.1 358.2 c-1.9 -0.9 -4.4 -3 -5.5 -4.5 -2.1 -2.8 -2.1 -3.9 -2.1 -51.5 l0 -48.7 2.8 -10 c2.4 -8.3 11.4 -33 27.3 -74.5 7.3 -19 9 -21.7 15.7 -25.1 3.6 -1.9 5.9 -1.9 49.5 -1.7 l45.7 0.3 3.3 2.4 c1.7 1.4 3.2 2.8 3.2 3.3 0 1.3 -5.1 0.9 -9.5 -0.7 -5.1 -1.8 -6.5 -1.8 -6.5 -0.1 0 0.7 -1 1.6 -2.2 2 -1.3 0.3 -19.1 0.6 -39.6 0.6 -46.8 0 -42.9 -1.3 -50 16.7 -14.8 37.7 -25 65.4 -28.5 76.8 l-3.1 10 -0.6 45 c-0.3 24.8 -0.7 45.1 -0.8 45.3 -0.1 0.1 -0.8 0.2 -1.6 0.2 -2.1 0 -0.8 3.9 2.2 7.3 1.5 1.5 4.3 3.3 6.4 3.9 2.6 0.8 3.8 1.7 3.8 3 0 2.4 -5.2 2.4 -9.9 0z"/>
  <path d="M177 358.1 c-6.2 -3.2 -9.8 -13 -8.4 -22.2 0.5 -2.9 1.1 -3.9 2.5 -3.9 1.1 0 1.9 0.5 1.9 1 0 0.6 0.6 1 1.4 1 0.8 0 1.7 1.4 2.1 3 0.8 3.4 -0.2 9 -1.6 9 -3.7 0 3.3 7.7 8.2 9 2.8 0.8 3.9 1.6 3.9 3 0 2.6 -5.2 2.7 -10 0.1z"/>
  <path d="M273 359.3 c-1.9 -0.7 -6 -4.4 -6 -5.5 0 -1.3 4.4 -0.9 8.3 0.7 2 0.8 5 1.5 6.7 1.5 2.3 0 3 0.4 3 2 0 1.8 -0.6 2 -5.2 1.9 -2.9 0 -6 -0.3 -6.8 -0.6z"/>
  <path d="M447 358.2 c-2.3 -1.2 -4.3 -3.5 -5.9 -6.5 l-2.3 -4.7 0.1 -96.2 0.2 -96.3 2.2 -4.4 c4.3 -8.6 0.7 -8.2 70.7 -7.9 l61.5 0.4 9.8 2.6 c10.4 2.9 18.2 6.6 21.8 10.4 l2.2 2.4 -3.2 0 c-1.7 0 -5.9 -1.4 -9.3 -3.1 -5.8 -2.9 -22.8 -7.9 -26.9 -7.9 -1.1 0 -1.9 0.7 -1.9 1.5 0 1.3 -7.7 1.5 -58.1 1.7 -56.8 0.3 -58.1 0.3 -59.2 2.3 -0.9 1.5 -1.3 26.7 -1.7 97.3 -0.4 78.6 -0.7 95.4 -1.9 96.1 -3 1.9 3.6 8.6 9.5 9.7 2.4 0.4 3.4 1.2 3.4 2.5 0 1.5 -0.7 1.9 -3.8 1.9 -2 0 -5.3 -0.8 -7.2 -1.8z"/>
  <path d="M267 326 c0 -14.7 -0.4 -23 -1 -23 -1.7 0 -1.1 -3.6 1 -5.5 1.2 -1.1 2 -1.3 2 -0.6 0 0.9 0.5 0.9 2 0.1 1.1 -0.6 2 -1.6 2 -2.3 0 -2.5 5.4 -3.7 16.8 -3.7 10.5 0 11.4 -0.1 11.9 -2 0.9 -3.5 3.3 -2.4 3.3 1.5 0 2.9 0.4 3.5 2.1 3.5 1.6 0 2 0.5 1.7 2.8 l-0.3 2.7 -16.7 0.3 -16.7 0.2 -2.1 2.7 c-2 2.5 -2.1 3.6 -1.8 24.5 l0.3 21.8 -2.2 0 -2.3 0 0 -23z"/>
  <path d="M671 339.7 c-5.6 -4.5 -5.3 -10.2 2 -31.6 l6.1 -17.7 -4 -11.4 c-5.1 -15.1 -18.6 -57.3 -20.1 -62.9 -3.1 -11.9 -1.5 -19.7 12.3 -60.1 9.4 -27.5 10.4 -29.7 14.7 -33.3 5.4 -4.6 7.9 -4.4 26 1.7 37.3 12.5 40 13.7 41.3 18.7 0.7 2.7 -3.7 2.6 -6.6 -0.2 -3.4 -3.2 -5.7 -4.2 -5.7 -2.6 0 1.8 -3.9 0.8 -26.5 -6.8 -18.8 -6.2 -21.8 -6.7 -24.5 -3.9 -2 2.1 -24 66.6 -24 70.5 0 4 -1.1 6.9 -2.6 6.9 -0.8 0 -1.4 0.3 -1.4 0.6 0 2.3 4.6 17.4 14.1 46.4 6 18.5 10.9 35.1 10.9 37 0 1.9 -0.9 5.9 -2 8.8 -1.6 4.1 -1.7 5.2 -0.6 5.2 1.6 0 0.9 4 -2.5 14.3 -2.7 8.3 -4 10.7 -5.5 10.7 -1 0 -1.1 0.7 -0.3 2.9 0.6 1.6 0.9 4.1 0.7 5.5 -0.2 2 -0.6 2.3 -1.8 1.3z"/>
  <path d="M534 298 c0 -1.7 0.7 -2 5.2 -2 4.5 0 5.5 -0.4 8 -3.2 l2.8 -3.2 0 -25 c0 -26.2 0.3 -29.6 2.6 -29.6 0.8 0 1.4 -0.7 1.4 -1.5 0 -2.9 2.9 -1.5 3.5 1.8 0.3 1.7 0.5 15.5 0.3 30.5 l-0.3 27.4 -3.7 3.4 c-3.6 3.3 -4.1 3.4 -11.8 3.4 -7.3 0 -8 -0.2 -8 -2z"/>
  <path d="M161.3 252.2 c-2.5 -0.2 -3.3 -0.8 -3.3 -2.3 0 -1.6 0.7 -1.9 5 -1.9 l4.9 0 -1.4 -4.1 c-1.9 -5.2 -1.9 -9.9 -0.2 -9.9 1.7 0 3.2 2.8 5.6 10.5 1.2 3.7 1.5 6.4 1 7.1 -0.9 1.1 -5.2 1.4 -11.6 0.6z"/>
  <path d="M759 229.8 c0 -1 -1.2 -1.3 -4.2 -1 l-4.3 0.4 5 -4.6 c2.8 -2.5 5.3 -4.6 5.7 -4.6 1.8 0 4.4 -6.2 12.2 -29.3 9.2 -26.9 10.7 -30.3 15.1 -32.9 6.3 -3.6 8.1 -3.3 33.6 5.3 13.2 4.5 25.5 9.2 27.2 10.3 1.7 1.2 3.7 3.6 4.4 5.4 1.2 3 1.2 3.2 -0.7 3.2 -1.3 0 -2 0.7 -2 2 0 2.9 -2.7 2.5 -3.4 -0.5 -0.4 -1.4 -1.6 -3.1 -2.9 -3.9 -2.6 -1.7 -41.5 -15 -46.7 -15.9 -6.2 -1.2 -6.4 -0.7 -16.4 28.5 -4.6 13.4 -9.1 25.8 -9.9 27.4 -2.4 4.6 -12.7 12.9 -12.7 10.2z"/>
  <path d="M270.1 207.7 c-1.3 -0.6 -3.4 -2.5 -4.5 -4 -2 -2.7 -2.1 -4.3 -2.4 -25.8 -0.3 -21.6 -0.2 -23.3 1.7 -27.3 1.4 -2.7 3.5 -5 6 -6.4 l3.9 -2.2 65.8 0 c53.2 0.1 66.2 0.3 67.7 1.4 2.8 2.2 2 2.6 -4.8 2.6 -4.9 0 -6.5 0.3 -6.5 1.4 0 0.7 -1 1.6 -2.2 2 -1.3 0.3 -28.5 0.6 -60.6 0.6 l-58.3 0 -2.4 2.5 c-2.5 2.4 -2.5 2.6 -2.6 21.7 -0.1 10.6 -0.1 19.9 0 20.6 0.1 0.6 -0.5 1.2 -1.4 1.2 -0.8 0 -1.5 0.3 -1.5 0.8 0 1.4 4 7.2 5 7.2 0.5 0 1 1.1 1 2.5 0 2.8 -0.5 3 -3.9 1.2z"/>
  <path d="M886.8 124.3 c-1 -0.2 -1.8 -1.3 -1.8 -2.3 0 -1.6 0.4 -1.7 3.5 -0.7 5.8 1.7 4.2 4.6 -1.7 3z"/>
  <path d="M875.3 120.6 c-2.2 -0.7 -3.3 -1.6 -3.3 -2.9 0 -1.3 0.5 -1.7 1.6 -1.3 0.9 0.3 2.7 0.9 4 1.2 2.3 0.6 3.3 2.9 1.7 3.6 -0.5 0.2 -2.3 -0.1 -4 -0.6z"/>
 </g>
 <g fill="#0ea0b3">
  <path d="M788.7 487.7 c-19.9 -6.5 -21.8 -7.3 -21.4 -9.2 0.3 -1.1 2.1 -6.9 4 -12.9 3.3 -10.1 3.4 -10.9 1.7 -11.3 -2.4 -0.6 -1.5 -3.1 1.2 -3.5 1.5 -0.2 2.5 -2 4.3 -7.6 1.3 -4.1 2.5 -7.6 2.8 -7.8 0.2 -0.2 5.7 1.4 12.3 3.7 10.9 3.7 11.9 3.9 13.1 2.4 1.6 -2.2 4.3 -1.3 3.7 1.3 -0.5 1.5 0.4 2.1 5.3 3.5 3.3 0.9 7.1 2 8.5 2.6 l2.6 1 -7.2 22.2 c-3.9 12.2 -7.6 22.4 -8.1 22.5 -0.6 0.1 -10.8 -3 -22.8 -6.9z m21.8 -17.8 c2.6 -7.7 4.5 -14.1 4.4 -14.2 -1.6 -1 -27.1 -8.8 -27.5 -8.4 -0.2 0.2 -2.5 6.4 -4.9 13.8 -3.3 9.8 -4.2 13.5 -3.3 13.9 0.7 0.2 6.9 2.3 13.8 4.6 6.9 2.3 12.6 4.2 12.7 4.3 0.1 0.1 2.2 -6.2 4.8 -14z"/>
  <path d="M665.3 419 c-2.6 -1.1 -3.1 -4 -0.8 -4 2.5 0 8.5 2.8 8.5 3.9 0 1.3 -4.6 1.3 -7.7 0.1z"/>
  <path d="M642 411.8 c-6.9 -2.2 -12.6 -4.4 -12.8 -4.9 -0.2 -0.5 -1.4 -0.9 -2.6 -0.9 -1.3 0 -4.9 -0.9 -8.2 -2 -3.2 -1.2 -6.7 -1.9 -7.7 -1.6 -0.9 0.2 -1.5 0 -1.1 -0.5 0.3 -0.5 -0.2 -0.9 -1 -0.9 -0.9 0 -1.6 -0.4 -1.6 -0.9 0 -0.6 -0.8 -0.9 -1.7 -0.9 -1 0 -3 -0.3 -4.5 -0.7 -2.7 -0.7 -2.8 -0.5 -4.5 5.5 -0.9 3.4 -2.2 6.4 -2.9 6.7 -0.9 0.3 -27.5 -7.8 -43.1 -13.2 -0.9 -0.3 0.2 -4.6 3.6 -14.7 2.7 -7.9 5.2 -15.1 5.6 -16 0.5 -1.4 0.2 -1.8 -1.3 -1.8 -2 0 -2 -0.2 -0.8 -4.2 3.2 -9.9 3.7 -10.8 6.3 -10.8 2.4 0 28.9 8 34.3 10.3 2.5 1.1 2.5 1.1 0.3 1.5 -3.8 0.6 -2.6 1.8 3.7 3.7 3.3 1 6 1.9 6 1.9 0 0.1 -1.8 5.7 -4 12.6 -2.2 6.9 -4 12.8 -4 13.1 0 0.9 4.7 2.5 34.3 12 16.4 5.3 25.7 8.7 25.7 9.6 0 2.1 -4.6 1.4 -18 -2.9z m-50.1 -24.9 c2.3 -7.2 4.1 -13.2 3.8 -13.5 -0.6 -0.6 -23.9 -8.4 -25.2 -8.4 -1 0 -10.1 25.8 -9.3 26.4 0.5 0.5 24.2 8.4 25.3 8.5 0.6 0.1 3 -5.8 5.4 -13z"/>
  <path d="M820.1 399.8 c2.5 -9 6.5 -19.2 7.7 -19.6 1.5 -0.5 1.7 5.4 0.2 6.3 -0.5 0.3 -1 1.5 -1 2.6 0 1 -0.4 2.7 -0.9 3.7 -0.5 0.9 -1.3 3.5 -1.8 5.7 -0.6 3 -1.3 4.1 -3 4.3 -2 0.3 -2.1 0.1 -1.2 -3z"/>
  <path d="M835 354.5 c0 -2.2 1.8 -5.5 3.1 -5.5 1.8 0 0.6 6.5 -1.3 6.8 -1.1 0.2 -1.8 -0.3 -1.8 -1.3z"/>
  <path d="M849 313.9 c0 -3.8 3.1 -13 4.6 -13.6 2.7 -1 2.8 0.7 0.4 8.2 -2.2 7.1 -5 10.1 -5 5.4z"/>
  <path d="M858.6 281.1 c0.8 -2.7 3.4 -10.7 5.7 -17.8 2.4 -7 6.5 -19.7 9.2 -28 3 -9.3 5.4 -15.3 6.2 -15.3 2.3 0 1.4 4 -5.2 23.9 -3.5 10.8 -8 24.6 -9.8 30.6 -2.8 9.1 -3.8 11.1 -5.5 11.3 -2.1 0.3 -2.1 0.2 -0.6 -4.7z"/>
  <path d="M880.1 215.8 c0.1 -3.7 10.3 -32.1 11.7 -32.6 2 -0.6 1.4 2.3 -3.9 18.9 -3.4 10.3 -5.6 15.9 -6.5 15.9 -0.8 0 -1.4 -1 -1.3 -2.2z"/>
  <path d="M922 204.1 c0 -1.5 0.6 -2.1 2.1 -2.1 1.4 0 1.9 0.5 1.7 1.7 -0.5 2.6 -3.8 2.9 -3.8 0.4z"/>
  <path d="M644 189.9 c0 -2.7 2.9 -8.9 4.2 -8.9 1.1 0 0.4 8.2 -0.8 10.1 -1 1.7 -3.4 0.9 -3.4 -1.2z"/>
  <path d="M892 179 c0 -2.9 2.7 -9 3.9 -9 1.4 0 1.4 3.9 0 7.9 -1.2 3.5 -3.9 4.2 -3.9 1.1z"/>
  <path d="M914.1 162.2 c-0.5 -1 -3.2 -2.5 -6 -3.4 -4.9 -1.6 -5.2 -1.6 -6.2 0.3 -1.3 2.6 -3.4 1.9 -3.4 -1.1 0 -2 -1 -2.7 -7 -4.7 -3.8 -1.3 -7.5 -2.5 -8.2 -2.8 -0.8 -0.3 0 -3.9 2.8 -12.2 3.1 -9.2 3.6 -12 2.7 -12.8 -0.7 -0.6 -6 -2.6 -11.8 -4.4 -20.5 -6.4 -29.4 -9.6 -29.8 -10.8 -0.2 -0.7 0.4 -1.3 1.3 -1.3 3.1 0 27.5 8.1 27 9 -0.3 0.4 0.3 0.6 1.3 0.3 1 -0.2 4.3 0.5 7.3 1.6 3 1.2 5.9 2.1 6.5 2.1 0.6 0 2.1 -3.4 3.4 -7.6 1.3 -4.1 2.7 -7.7 3.1 -7.9 0.5 -0.4 42.8 13.2 43.8 14.1 0.2 0.2 -1.8 6.5 -4.4 14 -4.3 12.4 -4.6 13.8 -3.1 14.9 4.6 3.4 -3 3.4 -8.4 0 -4 -2.6 -5.7 -6.9 -2.4 -6.3 1.1 0.2 2.3 -1.9 4.3 -8.4 l2.9 -8.7 -13.6 -4.5 c-7.5 -2.5 -13.6 -4.5 -13.7 -4.3 -0.5 0.6 -8.5 25.3 -8.5 26.3 0 0.9 14.5 6.4 17 6.4 0.5 0 1 -0.7 1 -1.5 0 -2.1 2.6 -1.9 3.5 0.3 1.3 3.4 1.8 15.2 0.7 15.2 -0.6 0 -1.6 -0.8 -2.1 -1.8z"/>
  <path d="M833.1 107.2 c-7.7 -2.8 -10.3 -5.2 -5.7 -5.2 1.5 0 3.4 0.4 4.4 0.9 0.9 0.5 4.3 1.6 7.5 2.5 3.5 1.1 5.7 2.2 5.7 3.2 0 2.1 -3.4 1.7 -11.9 -1.4z"/>
  <path d="M807.8 98.9 c-2.9 -1.6 -2.1 -3.1 1.4 -2.7 2.2 0.2 3.4 0.9 3.6 2.1 0.4 1.9 -2.2 2.3 -5 0.6z"/>
  <path d="M698.5 80.4 c-7.1 -2.4 -13.3 -4.4 -13.7 -4.4 -0.5 0 -0.8 0.7 -0.8 1.6 0 0.9 -0.7 1.4 -1.7 1.2 -1.1 -0.2 -1.7 -1.1 -1.5 -2.3 0.2 -1.7 -0.9 -2.3 -6.3 -3.9 -3.6 -1 -6.8 -2.3 -7.1 -2.7 -0.3 -0.5 2.8 -11 6.8 -23.4 5.6 -17.3 7.6 -22.4 8.8 -22.1 1.1 0.3 37.5 12 43.7 14.1 0.8 0.3 -0.3 4.6 -3.2 13.7 -3.9 11.8 -4.3 13.4 -2.9 14.5 1.9 1.4 1 3.3 -1.4 3.3 -1.2 0 -2.3 2 -4 7.5 -1.2 4.1 -2.6 7.5 -3 7.4 -0.4 0 -6.5 -2 -13.7 -4.5z m12.9 -21.1 c2.5 -7.5 4.3 -14 3.8 -14.4 -0.9 -0.8 -27.3 -9.1 -27.7 -8.7 -0.7 0.8 -8.5 25.5 -8.5 26.8 0 1 4 2.8 12.8 5.6 7 2.3 13.2 4.2 13.9 4.3 0.6 0.1 3.2 -6.1 5.7 -13.6z"/>
 </g>
 <g fill="#1c2a9a">
  <path d="M715 365.4 c-25.8 -8.8 -29 -10.6 -29 -16 0 -1.7 -0.7 -2.8 -2 -3.1 -2 -0.5 -2.9 -3.3 -1 -3.3 0.6 0 1 -0.8 1 -1.9 0 -1.4 0.6 -1.7 2.5 -1.3 1.4 0.2 2.5 0.2 2.5 0 0 -0.3 2.3 -6.9 5 -14.8 l5 -14.3 -2.9 -8.6 c-8.2 -23.9 -21.1 -64.5 -22.2 -70 -0.9 -4.7 -0.9 -7.8 -0.1 -12.9 1.3 -7.5 20.2 -65.1 22.7 -68.9 3.3 -5 5.2 -4.9 25.7 1.9 17.4 5.8 19 6.2 19.9 4.5 1.2 -2.1 2.9 -2.2 2.9 -0.2 0 0.8 0.9 1.5 2 1.5 1.3 0 1.8 0.5 1.4 1.5 -0.4 0.8 -0.2 1.5 0.4 1.5 0.6 0 2.4 1.2 4.1 2.6 2.3 1.9 3.1 3.4 3.1 5.7 0 3 -11.5 39.4 -14.6 46.5 -0.8 1.7 -1.8 5.5 -2.1 8.2 -0.5 4 -1 5 -2.4 5 -1.4 0 -1.9 -0.8 -2 -2.7 0 -1.6 -0.3 -2.2 -0.6 -1.5 -0.3 0.8 0 3.3 0.7 5.7 1.3 4.6 4.4 7.5 7.9 7.5 2.8 0 3.7 2.1 1.6 3.7 -1.8 1.2 -1.8 1.8 -0.6 7.5 0.7 3.5 1.7 7.1 2.2 8 1 1.8 6.9 4.8 9.4 4.8 1.9 0 26.2 -19.6 27.6 -22.2 0.6 -1.2 4.9 -13.3 9.4 -26.8 4.6 -13.6 8.9 -25.6 9.6 -26.8 2 -3.1 5.1 -4.2 9.5 -3.2 4.7 1.1 27 8.4 30.9 10.2 2.3 1.1 2.9 1 4 -0.6 1.3 -1.7 1.3 -1.7 1.8 0.1 0.4 1.6 0.5 1.6 0.6 0.1 0.1 -1.2 0.9 -1.8 2.6 -1.8 2.2 0 2.4 0.3 1.9 3 -0.5 2.3 -0.3 3 0.9 3 1.8 0 6.7 5.5 6.7 7.5 0 0.7 -2 7.3 -4.4 14.7 -11.6 34.6 -17 49.8 -19.9 55.1 -4.7 9 -8.6 12 -64.7 50.6 -5.2 3.5 -9.8 7 -10.2 7.5 -0.4 0.6 -3.4 9.2 -6.8 19.1 -6.2 18.8 -8.5 22.6 -13.3 22.4 -1.2 -0.1 -13.2 -3.9 -26.7 -8.5z"/>
  <path d="M82.9 362.1 c-1.7 -1.7 -3.6 -2.8 -4.4 -2.5 -0.7 0.3 -1.5 -0.5 -1.9 -1.8 -1 -3.8 -0.7 -4.6 1.7 -5 l2.2 -0.3 0.6 -43 c0.5 -36.5 0.8 -43.9 2.3 -49 2.6 -9.3 5.7 -18.8 6.6 -21 0.5 -1.1 2 -4.9 3.4 -8.5 17.3 -45.5 24.1 -62.9 25.3 -64.7 3.3 -5 6.4 -5.3 47.9 -5.3 33.9 0 38.5 -0.2 38 -1.5 -0.3 -1 0.1 -1.5 1.3 -1.5 1.1 0 2.2 0.6 2.4 1.3 0.4 0.9 0.6 0.9 0.6 0 0.1 -1.9 3.1 -1.6 3.1 0.2 0 0.9 1.5 2.5 3.4 3.6 4 2.3 4.2 2.8 20.1 44.4 22.2 57.9 21.5 54.4 21.5 109 0 43.8 -0.2 46.2 -4.5 47.9 -0.9 0.3 -13.1 0.6 -27.1 0.6 -25.5 0 -28.8 -0.4 -30.7 -3.6 -0.4 -0.8 -1.9 -1.4 -3.2 -1.4 -2.2 0 -2.5 -0.5 -2.5 -3.4 0 -2.5 0.5 -3.5 2 -3.9 2 -0.5 2 -1.2 1.8 -18.9 l-0.3 -18.3 -8 0 c-8 0 -8 0 -8.3 2.8 -0.2 1.9 -0.9 2.7 -2.3 2.7 -1 0 -1.9 -0.4 -1.9 -1 0 -0.5 -0.6 -1 -1.4 -1 -0.7 0 -1.6 -0.9 -1.9 -2 -0.5 -2 -1.2 -2 -12.9 -1.8 l-12.3 0.3 -0.5 22.5 c-0.3 12.4 -0.7 22.6 -0.8 22.7 -4.3 4.5 -3.1 4.3 -30.4 4.3 l-25.8 0 -3.1 -2.9z m159.8 -81.4 c-0.1 -8.4 -0.3 -1.2 -0.3 15.8 0 17.1 0.2 23.9 0.3 15.2 0.2 -8.7 0.2 -22.7 0 -31z m-71.1 25.7 c-0.4 -1.1 -2.8 -1.4 -11.8 -1.2 l-11.3 0.2 11 0.5 c10.8 0.6 11 0.7 11.4 3.1 0.3 1.9 0.5 2.1 0.9 0.7 0.2 -1 0.1 -2.5 -0.2 -3.3z m-30.1 -0.4 c0.3 -0.5 -0.3 -1 -1.5 -1 -1.2 0 -1.8 0.5 -1.5 1 0.3 0.6 1 1 1.5 1 0.5 0 1.2 -0.4 1.5 -1z m47.8 -42.7 c0.5 -1 -10.9 -38.7 -13.1 -43.3 -1.6 -3.3 -2 -3.5 -7.4 -3.8 -5.3 -0.3 -5.8 -0.1 -5.8 1.8 0 1.1 -0.7 2 -1.6 2 -1.4 0 -1.4 0.1 0 1.6 2.1 2.1 2.2 8.4 0.1 8.4 -0.9 0 -2 -1.2 -2.6 -2.7 -1.1 -2.7 -1.2 -2.6 -3.4 4.2 -1.2 3.9 -2.6 8.5 -2.9 10.3 -0.7 3.1 -0.6 3.2 2.3 3.2 2.4 0 3.1 0.4 3.1 2 0 1.5 -0.7 2 -2.5 2 -1.4 0 -3.3 0.8 -4.4 1.9 -2.1 2.1 -5.3 10.9 -4.5 12.2 0.6 1.1 42.1 1.2 42.7 0.2z"/>
  <path d="M289.6 362.5 c-1.4 -1.4 -3.4 -2.5 -5 -2.5 -1.9 0 -2.6 -0.5 -2.6 -2 0 -1.6 0.7 -2 3.3 -2.1 1.7 -0.1 2.4 -0.3 1.5 -0.6 -1.9 -0.5 -2.5 -2.3 -0.9 -2.3 0.6 0 1.1 -7.9 1.3 -18.6 l0.3 -18.6 2.8 -2.4 c2.7 -2.3 3.3 -2.4 18.8 -2.4 l15.9 0 0 -47.5 0 -47.5 -8 0 c-5.2 0 -8 0.4 -8 1.1 0 0.6 -0.9 0.9 -2 0.6 -1.1 -0.3 -2 -0.1 -2 0.4 0 0.5 -0.7 0.9 -1.5 0.9 -0.8 0 -1.5 -0.6 -1.5 -1.4 0 -0.9 -1.7 -1.5 -5.2 -1.8 -4 -0.4 -5.7 -1.1 -7.4 -3.2 -1.3 -1.4 -2.8 -2.6 -3.4 -2.6 -0.5 0 -1 -0.7 -1 -1.5 0 -1 1.6 -1.5 5.8 -1.8 l5.7 -0.3 -6.2 -0.2 c-3.5 -0.1 -6.3 -0.6 -6.3 -1.2 0 -0.5 0.6 -1 1.4 -1 1.2 0 1.5 -3.3 1.8 -19 0.3 -18.2 0.4 -19 2.6 -21.2 l2.3 -2.3 59.4 -0.3 c51.7 -0.2 59.5 -0.4 59.5 -1.7 0 -0.8 0.5 -1.5 1 -1.5 0.6 0 1.1 2.1 1.1 4.8 0.1 2.6 0.5 10.5 0.9 17.7 0.7 11.7 0.8 11.1 0.4 -6.3 -0.3 -18.6 -0.3 -19.2 1.6 -19.2 1.5 0 2 0.7 2 2.8 0 2.5 0.6 3 4 4.1 2.2 0.6 4.4 2 5 3.1 0.6 1.1 1 10.9 1 23.8 l0 21.9 -2.6 2.7 c-2.7 2.6 -2.7 2.6 -18.5 2.6 l-15.9 0 0 38 c0 33.1 0.2 38 1.5 38 1 0 1.5 1.1 1.5 3.5 0 2.4 -0.5 3.5 -1.5 3.5 -1.2 0 -1.5 1.3 -1.5 6 l0 6 10 0 c6 0 10 -0.4 10 -1 0 -1.8 2 -1.1 2.1 0.8 0 1.3 0.2 1.2 0.9 -0.5 1 -2.5 4 -3.2 4 -0.9 0 0.8 1.5 1.7 3.4 2 6.2 1.2 6.6 2.9 6.6 27.1 0 21.6 0 21.6 -2.5 24 l-2.4 2.5 -65.6 0 -65.6 0 -2.3 -2.5z m125.1 -28.7 c-0.2 -1.8 -0.4 -0.4 -0.4 3.2 0 3.6 0.2 5 0.4 3.3 0.2 -1.8 0.2 -4.8 0 -6.5z m0 -14.5 c-0.3 -1 -0.5 -0.2 -0.5 1.7 0 1.9 0.2 2.7 0.5 1.8 0.2 -1 0.2 -2.6 0 -3.5z m-34.9 -112.6 c2.5 -0.5 2.5 -0.5 -0.3 -0.3 l-3 0.1 0 38 0 38 0.2 -37.7 0.3 -37.7 2.8 -0.4z m20 -0.4 c-2.1 -0.2 -5.5 -0.2 -7.5 0 -2.1 0.2 -0.4 0.4 3.7 0.4 4.1 0 5.8 -0.2 3.8 -0.4z"/>
  <path d="M465.6 362.5 c-1.3 -1.4 -2.9 -2.5 -3.6 -2.5 -0.7 0 -1 -0.8 -0.7 -2 0.3 -1.3 0 -2 -0.9 -2 -2.2 0 -1.7 -2.7 0.6 -3.3 2 -0.5 2 -1.4 2 -93.1 l0 -92.5 2.4 -2.8 2.4 -2.8 53.4 -0.3 c57.2 -0.3 67.8 0.2 80.3 4.2 7.1 2.3 7.5 2.3 5.9 0.5 -1.7 -1.8 -1.6 -1.9 1.8 -1.9 3.4 0 3.7 0.3 7.2 7.2 2.6 5.4 3.6 6.6 3.6 4.8 0.1 -2.3 0.4 -2.1 4.6 2.5 5.9 6.5 11.1 17 12 24.2 0.6 5.1 0.8 5.5 2 3.8 2.3 -3.1 2.9 -0.8 1.4 5.3 -1.1 4.4 -1.6 18 -2 58.7 -0.5 50.9 -0.7 53.2 -2.7 58.7 -2.8 7.5 -3.9 9.4 -8.4 15.4 -4.9 6.7 -14.1 12.7 -24 15.9 l-7.8 2.5 -8.8 -2.6 c-4.9 -1.5 -9.6 -2.9 -10.5 -3.1 -1 -0.3 -1.8 -1.1 -1.8 -1.8 0 -0.9 -1.8 -1.4 -5 -1.7 l-4.9 -0.3 -2.2 5.8 -2.1 5.7 -46 0 -45.9 0 -2.3 -2.5z m103.1 -53.1 c5.3 -3.9 5.3 -4 5.3 -46.2 0 -33.7 -0.2 -39.7 -1.6 -42.3 -2.7 -5.3 -14 -8.2 -15.1 -3.9 -0.7 2.7 -3.3 2.5 -3.4 -0.2 -0.1 -1.7 -0.2 -1.9 -0.6 -0.5 -0.6 2.1 -1.9 2.2 -2.7 0.2 -0.5 -1.3 -2.5 -1.5 -11.8 -1.3 l-11.3 0.3 -0.2 38.3 c-0.3 37.6 -0.2 38.4 1.7 38.9 2.8 0.7 2.8 5.9 0 6.6 -1.7 0.4 -2 1.4 -2 5.9 0 3 0.3 5.8 0.8 6.2 0.4 0.4 9.1 0.6 19.4 0.4 17.1 -0.3 18.9 -0.5 21.5 -2.4z m56.2 -28.1 c0 -16.5 -0.2 -18.4 -1.3 -15.3 -0.7 1.9 -0.9 3.7 -0.5 3.8 0.5 0.2 0.9 7.1 0.9 15.3 0 8.2 0.2 14.9 0.5 14.9 0.3 0 0.5 -8.4 0.4 -18.7z m1.2 -42.1 c-0.7 -0.2 -1.1 -6.5 -1.1 -19.3 0 -11.9 -0.4 -18.9 -1 -18.9 -1.2 0 -1.3 9.8 -0.3 32.4 0.6 15.9 0.6 16 2.1 11.1 1 -3.5 1.1 -5 0.3 -5.3z"/>
 </g>
 <g fill="#2f014c">
  <path d="M71.3 359.4 c-1.8 -0.8 -1.6 -3.4 0.2 -3.4 0.8 0 1.5 -0.7 1.5 -1.5 0 -1.2 1 -1.6 3.8 -1.5 2 0 12.3 0 22.9 0.1 18.4 0 19.3 -0.1 22.3 -2.2 1.7 -1.3 2.8 -2.9 2.6 -3.6 -0.3 -0.7 -0.1 -1.3 0.5 -1.3 0.7 0 1 -7 0.9 -20.7 -0.1 -11.5 -0.1 -21.4 -0.1 -22 0.1 -1 5.6 -1.3 24 -1.3 13.2 0 24.2 0.3 24.4 0.8 0.3 0.4 0.8 4.9 1.1 10 l0.6 9.2 -3.4 0 c-3.3 0 -3.3 0 -3.9 -5.6 -0.3 -3.1 -0.9 -6 -1.4 -6.5 -1 -0.9 -22.1 -1.4 -23 -0.5 -1.1 1 -7.8 0.7 -9 -0.5 -0.9 -0.9 -1.6 -0.8 -2.8 0.5 -1.4 1.4 -1.6 4 -1.3 20.1 0.2 10.2 -0.1 18.5 -0.5 18.5 -0.5 0 -0.5 0.5 -0.1 1.2 0.4 0.6 -0.1 1.7 -1.1 2.5 -1.1 0.7 -1.5 1.3 -1 1.3 0.4 0 0 0.9 -1 2 -1 1.1 -2.9 2 -4.2 2 -1.2 0 -2.3 0.4 -2.3 0.8 0 0.4 -8.2 0.8 -18.2 0.8 -10.1 0 -21 0.3 -24.3 0.7 -3.3 0.3 -6.6 0.4 -7.2 0.1z"/>
  <path d="M184.4 356.9 c0.3 -1.8 0.9 -3.5 1.2 -3.8 0.3 -0.3 11 -0.5 23.8 -0.3 l23.2 0.2 3.4 -2.9 3.5 -2.9 -0.3 -42.3 c-0.2 -23.3 -0.5 -44.4 -0.8 -46.9 -0.7 -6 -6.1 -26.7 -8 -30.8 -0.8 -1.8 -1.7 -4.2 -1.9 -5.2 -0.2 -1.1 -0.7 -2.6 -1.2 -3.3 -0.4 -0.6 -0.8 -1.7 -0.9 -2.4 -0.2 -1.4 -6.4 -17.4 -7.2 -18.8 -0.4 -0.5 -0.8 -1.8 -0.9 -2.8 -0.2 -1 -1.4 -4.2 -2.7 -7 -3.4 -7.2 -6.7 -15.7 -7.3 -18.7 -0.2 -1.3 -0.8 -2.9 -1.3 -3.5 -0.5 -0.5 -1.5 -2.9 -2.3 -5.3 l-1.5 -4.2 2.7 0 c3.2 0.1 6.1 2.1 6.1 4.3 0 1 1.5 2.3 3.5 3.1 3.7 1.6 4.9 3.2 1.6 2.1 -2.4 -0.7 -3.7 1.1 -2.1 3 0.7 0.8 0.9 1.5 0.6 1.5 -0.4 0 -0.1 1 0.6 2.3 0.7 1.2 1.3 2.5 1.4 3 0.1 0.4 0.3 1 0.4 1.5 0.1 0.4 0.2 1 0.1 1.5 0 0.4 0.4 0.7 1 0.7 0.6 0 0.9 0.7 0.5 1.5 -0.3 0.8 -0.1 1.5 0.4 1.5 0.8 0 2.4 5.1 2 6.6 -0.1 0.4 0.3 1 0.8 1.3 0.6 0.3 1.2 1.5 1.4 2.6 0.1 1.1 0.6 2.2 1 2.5 0.4 0.3 0.9 1.5 1.1 2.5 0.1 1.1 0.6 2.6 1 3.3 0.5 0.6 0.6 1.2 0.2 1.2 -0.3 0 0 1 0.7 2.3 0.7 1.2 1.1 2.5 1 3 -0.1 0.4 0.3 0.7 1 0.7 0.6 0 0.9 0.3 0.5 0.6 -0.3 0.4 0.3 2.9 1.4 5.8 7.3 18.2 11.3 32.1 12.8 44.1 1.2 9.1 1.9 83.5 0.8 85.2 -0.4 0.6 -0.4 1.8 -0.1 2.7 0.3 0.9 0.1 1.6 -0.6 1.6 -0.6 0 -0.8 0.5 -0.5 1 0.4 0.6 -0.3 2.6 -1.5 4.5 -1.7 2.7 -2.8 3.5 -5.1 3.5 -1.6 0 -2.9 0.3 -2.9 0.8 0 0.4 -8.4 0.7 -18.7 0.8 -10.4 0 -21.9 0.4 -25.7 0.8 l-6.9 0.8 0.7 -3.3z"/>
  <path d="M276.9 359 c-1.4 -0.4 -4 -2.1 -5.7 -3.8 -2.5 -2.5 -3.3 -4.2 -3.8 -8.7 -0.6 -4.7 -0.4 -5.5 1 -5.5 0.9 0 1.7 0.3 1.7 0.8 0.1 0.4 0.3 1.6 0.4 2.7 0.4 3.4 2.5 6.5 5.1 7.5 3.3 1.3 11.4 1.3 11.4 0 0 -0.6 0.9 -0.6 2.6 0 1.5 0.6 24.7 1 59 1 49.3 0 56.5 -0.2 57 -1.5 0.4 -0.8 1.2 -1.5 2 -1.5 0.7 0 1.8 -0.9 2.4 -1.9 1.3 -2.5 1.3 -31.1 0 -34.5 -0.6 -1.7 -0.6 -2.6 0 -2.6 2.2 0 1 -6.2 -1.8 -8.9 -2.5 -2.5 -3.6 -2.8 -12.7 -3.5 -5.5 -0.5 -12.2 -0.9 -15 -1 -2.7 -0.1 -5.6 -0.3 -6.3 -0.4 -1 -0.2 -1.2 -10 -1 -46.9 l0.3 -46.8 16.2 -0.5 c15.4 -0.5 16.3 -0.6 18.8 -3 l2.6 -2.4 -0.4 -21.7 c-0.2 -11.9 -0.7 -22.1 -1.1 -22.8 -0.5 -0.7 0.3 -1.1 2.3 -1.1 1.7 0 3.1 0.5 3.1 1 0 0.6 0.6 1 1.3 1 1.1 0 1.4 4.3 1.6 21.5 0.1 14.1 -0.1 21.5 -0.8 21.5 -0.6 0 -0.8 0.6 -0.5 1.4 0.3 0.7 -0.2 2.1 -1.1 3 -0.9 0.9 -1.3 1.6 -0.9 1.6 1.6 0 -2.3 3.3 -6 5.1 -3.4 1.6 -6 1.9 -15.9 1.8 -6.5 0 -12 0.1 -12.2 0.3 -0.7 0.7 -0.7 79.7 0 80.9 0.4 0.6 2.4 1 4.4 0.8 7.4 -0.4 10.1 0 10.1 1.7 0 1.4 0.8 1.6 4.2 1.1 2.4 -0.3 4.4 -1 4.6 -1.5 0.5 -1.5 6.1 0.4 9 3 4.7 4.4 5 6 5.1 28.6 0 11.6 -0.2 21.2 -0.7 21.2 -0.4 0 -0.7 1.4 -0.8 3 -0.1 3.7 -3.2 6.8 -7.4 7.6 -1.6 0.4 -3 0.9 -3 1.3 0 0.3 -25.8 0.6 -57.3 0.7 -31.4 0 -59.9 0.3 -63.2 0.6 -3.3 0.3 -7.2 0.2 -8.6 -0.2z"/>
  <path d="M459.4 358.6 c-0.3 -0.9 -1.5 -1.6 -2.5 -1.6 -1.2 0 -1.9 -0.7 -1.9 -2 0 -1.7 0.7 -2 4.8 -2 2.6 0 26.8 -0.1 53.9 -0.4 37.2 -0.3 49.3 -0.2 49.6 0.7 0.2 0.7 0 2.4 -0.5 3.9 -0.8 2.3 -1.3 2.6 -2.9 1.8 -2.2 -1.2 -91.6 -0.8 -96.6 0.4 -2.6 0.7 -3.4 0.5 -3.9 -0.8z"/>
  <path d="M721.5 358.4 c-1.4 -0.7 -2.5 -1 -2.5 -0.7 0 0.3 -0.7 -0.1 -1.7 -0.8 -0.9 -0.8 -1.8 -1.3 -2 -1.1 -0.1 0.1 -0.4 0.2 -0.5 0.1 -0.2 0 -1.4 -0.2 -2.7 -0.5 -1.4 -0.2 -3 -0.9 -3.8 -1.5 -0.7 -0.6 -1.3 -0.8 -1.3 -0.4 0 0.4 -0.7 0.2 -1.5 -0.5 -0.8 -0.7 -1.5 -0.9 -1.5 -0.5 0 0.4 -0.6 0.3 -1.2 -0.2 -1.6 -1.3 -7.9 -3.3 -12.1 -4 -1.8 -0.3 -3.6 -0.8 -4.2 -1.3 -0.5 -0.4 -2.5 -1.1 -4.3 -1.5 -3.1 -0.6 -3.3 -0.9 -2.6 -3.8 0.3 -1.8 0.8 -3.4 0.9 -3.5 0.2 -0.2 3.4 0.8 7 2.3 3.7 1.4 6.9 2.4 7.3 2.1 0.3 -0.3 1 -0.2 1.6 0.3 0.6 0.5 8.4 3.2 17.3 6.1 l16.3 5.2 3.4 -2.6 c3 -2.2 4 -4.4 8 -16.2 2.5 -7.5 4.3 -14 4.1 -14.5 -0.3 -0.4 -0.1 -0.9 0.4 -1.1 0.6 -0.1 1.3 -1.9 1.6 -3.8 0.3 -1.9 0.7 -3.5 0.8 -3.6 0.1 -0.1 2.7 -1.8 5.7 -4 3 -2.1 12.1 -8.4 20.2 -14.1 8.1 -5.7 15.2 -10.3 15.7 -10.3 0.5 0 1.1 -0.4 1.3 -0.8 0.4 -0.9 17.4 -13.1 19.4 -13.9 0.7 -0.3 1.6 -1.3 1.9 -2.4 0.4 -1 1.2 -1.9 1.9 -1.9 2 0 8.1 -7.2 10.9 -12.6 1.4 -2.7 5.5 -13.7 9.2 -24.4 8.8 -25.8 10.4 -30.8 9.7 -31.4 -0.3 -0.3 0.2 -1.4 1.1 -2.3 0.8 -1 1.9 -3 2.2 -4.6 0.7 -2.5 3.5 -4 3.5 -1.8 0 0.5 0.9 1.1 1.9 1.3 1.9 0.3 1.9 0.4 0.1 4.3 -1.1 2.2 -1.9 4.8 -2 5.7 0 2.7 -6.1 18.8 -7.1 18.8 -0.4 0 -0.6 0.7 -0.3 1.5 0.4 0.8 0.1 1.5 -0.5 1.5 -0.6 0 -0.8 0.7 -0.5 1.5 0.4 0.8 0.2 1.5 -0.4 1.5 -0.6 0 -0.8 0.8 -0.5 1.9 0.2 1 -0.2 2.4 -1 3.2 -0.7 0.8 -1.2 2 -0.9 2.7 0.4 1.4 -1.9 7.2 -3 7.2 -0.4 0 -0.5 0.7 -0.2 1.5 0.4 0.8 0.1 1.5 -0.5 1.5 -0.6 0 -0.8 0.7 -0.5 1.5 0.4 0.8 0.1 1.5 -0.5 1.5 -0.6 0 -0.8 0.6 -0.5 1.4 0.3 0.7 -0.2 2 -1 2.9 -0.8 0.8 -1.2 1.7 -0.9 2.1 0.4 0.3 0.1 0.6 -0.6 0.6 -0.7 0 -0.9 0.5 -0.6 1 0.3 0.5 0.1 1 -0.5 1 -0.6 0 -0.8 0.5 -0.5 1 0.3 0.6 0.1 1 -0.5 1 -0.6 0 -0.8 0.5 -0.5 1 0.3 0.6 0.1 1 -0.5 1 -0.6 0 -0.8 0.5 -0.4 1.1 0.8 1.3 -13.9 15.9 -16.1 15.9 -0.8 0 -1.5 0.7 -1.5 1.5 0 0.8 -0.7 1.5 -1.5 1.5 -0.8 0 -1.5 0.5 -1.5 1 0 0.6 -0.7 1 -1.4 1 -0.8 0 -2.7 1.1 -4.2 2.5 -1.4 1.3 -3.9 3 -5.5 3.7 -1.6 0.7 -2.9 1.6 -2.9 2 0 0.5 -0.7 0.8 -1.5 0.8 -0.8 0 -1.5 0.5 -1.5 1 0 0.6 -0.7 1 -1.5 1 -0.8 0 -1.5 0.5 -1.5 1 0 0.6 -0.6 1 -1.4 1 -0.8 0 -1.6 0.7 -2 1.5 -0.3 0.8 -1.3 1.5 -2.1 1.5 -0.9 0 -1.3 0.5 -1 1 0.3 0.6 -0.3 1 -1.3 1 -1.1 0 -2.2 0.7 -2.6 1.5 -0.3 0.8 -1.2 1.5 -2.1 1.5 -0.8 0 -1.5 0.5 -1.5 1 0 0.6 -0.5 1 -1 1 -0.6 0 -2.1 1.1 -3.4 2.5 -1.3 1.4 -3.1 2.5 -4 2.5 -1 0 -1.4 0.5 -1.1 1 0.3 0.6 -0.1 1 -0.9 1 -0.9 0 -1.6 0.5 -1.6 1 0 0.6 -0.5 1 -1 1 -0.9 0 -4.4 3.3 -7.6 7.2 -0.6 0.7 -0.9 1.9 -0.6 2.6 0.2 0.6 -0.1 1.2 -0.6 1.2 -0.5 0 -0.7 1.1 -0.4 2.5 0.3 1.6 -0.1 2.7 -1.1 3.1 -0.9 0.3 -1.3 1.2 -1 2 0.3 0.8 0.1 1.4 -0.3 1.4 -0.5 0 -1 1.2 -1.1 2.7 0 1.5 -0.6 2.9 -1.2 3.1 -0.6 0.2 -0.9 0.8 -0.5 1.3 0.3 0.5 0 0.9 -0.6 0.9 -0.6 0 -0.8 0.5 -0.5 1 0.8 1.4 -1.4 8 -2.6 8 -0.6 0 -0.7 0.4 -0.4 1 0.3 0.5 -0.7 2.2 -2.2 3.6 -1.5 1.4 -2.8 3 -2.8 3.4 0 1.7 -1.6 2.2 -7.5 2.4 -3.4 0.2 -7.1 -0.3 -8.5 -1z"/>
  <path d="M569.6 355.1 c-2.8 -0.9 -5.1 -2.2 -5.3 -2.8 -0.2 -0.6 2.4 -1.3 6.4 -1.6 3.7 -0.4 10.5 -1.8 15 -3.3 7.4 -2.3 8.3 -2.9 9.3 -5.8 0.5 -1.7 1.9 -3.7 3 -4.3 1.8 -1.2 1.9 -1.1 1.3 1.9 l-0.6 3.2 4.4 -3.6 c6 -4.9 7.8 -7.2 11.7 -14.6 2.1 -3.8 3.5 -8.2 3.8 -11.4 0.3 -2.8 0.8 -5.8 1.3 -6.7 0.4 -0.9 0.8 -8.8 0.9 -17.6 0.1 -14.7 0 -15.7 -1.3 -12.5 l-1.5 3.5 0.3 -5.5 c0.2 -3 1.4 -9 2.7 -13.3 2 -6.4 2.2 -8 1.1 -8.6 -1.1 -0.7 -1.4 -7 -1.8 -29.7 -0.4 -24 -0.8 -30.1 -2.3 -35.9 -2.8 -10.5 -7.1 -18 -13.2 -22.9 l-5.2 -4.1 4.9 -0.3 c4.9 -0.4 5.1 -0.2 9.5 4.7 2.5 2.7 5.7 7.2 7 10 1.4 2.8 2.7 5.1 3 5.1 0.3 0 0.6 2.3 0.7 5.1 0.1 2.8 0.7 5.7 1.3 6.4 0.5 0.7 0.7 2.6 0.4 4.4 -0.4 2 -0.3 3.1 0.5 3.1 0.7 0 1.2 6.1 1.4 19.3 0.1 11.7 0.6 18.3 1.1 17 0.5 -1.3 1.2 -2 1.7 -1.7 1.5 0.9 1 4.7 -1.2 11 -1.9 5.4 -2 8 -1.9 32.7 0 15.6 -0.3 26.7 -0.8 26.7 -0.9 0 -2.7 11 -2.3 14.3 0.1 0.9 -0.3 1.7 -0.9 1.7 -0.6 0 -0.8 0.5 -0.5 1 0.3 0.6 0.2 1 -0.4 1 -0.6 0 -0.8 0.7 -0.5 1.5 0.4 0.8 0.1 1.5 -0.5 1.5 -0.6 0 -0.8 0.7 -0.5 1.5 0.4 0.8 -0.1 1.7 -1 2.1 -0.9 0.3 -1.3 1 -1.1 1.5 0.3 0.4 -0.3 1.7 -1.5 2.9 -1.1 1.1 -1.7 2 -1.3 2 0.4 0 -1.3 2 -3.7 4.5 -2.4 2.5 -5 4.5 -5.7 4.5 -0.6 0 -1.6 0.6 -2 1.3 -0.4 0.7 -2.7 2.1 -5 3.1 -3.2 1.4 -4.6 2.8 -5.5 5.2 -0.7 2.1 -1.9 3.4 -3 3.4 -1.1 0 -1.5 -0.5 -1.2 -1.5 0.9 -2.1 -2.4 -1.9 -8.8 0.5 -6.2 2.3 -5.9 2.3 -12.2 0.1z"/>
  <path d="M170.7 348.3 c-0.4 -0.3 -0.7 -1.9 -0.7 -3.5 0 -2.1 0.5 -2.8 2 -2.8 1.6 0 2 0.7 2 3.5 0 3.3 -1.6 4.6 -3.3 2.8z"/>
  <path d="M440.7 348.3 c-0.4 -0.3 -0.7 -1.9 -0.7 -3.5 0 -2.1 0.5 -2.8 2 -2.8 1.6 0 2 0.7 2 3.5 0 3.3 -1.6 4.6 -3.3 2.8z"/>
  <path d="M524.5 298.9 c-1.1 -0.4 -4.8 -0.8 -8.2 -0.8 l-6.3 -0.1 0 -48 0 -47.9 19.3 0.2 c21.7 0.3 23.6 0.8 26.3 7.2 1.6 4 1.8 8.5 0.4 8.5 -0.5 0 -1 0.7 -1 1.5 0 0.8 -0.9 1.5 -2 1.5 -1.3 0 -2 -0.7 -2 -2 0 -3.5 -3.9 -9.9 -6.3 -10.5 -1.2 -0.3 -8 -0.4 -15.2 -0.3 l-13 0.3 0.1 41.5 0 41.5 9.2 0.9 c8 0.8 9.2 1.1 9.2 2.7 0 1.4 -0.7 1.9 -2.5 1.9 -1.4 0 -2.5 0.4 -2.5 0.9 0 1.3 -3.2 1.9 -5.5 1z"/>
  <path d="M541 298 c0 -0.5 -0.9 -1 -2 -1 -1.3 0 -2 -0.7 -2 -2 0 -1.7 0.7 -2 4.3 -2 2.3 0 5.2 0.3 6.5 0.6 2.5 0.7 3 3.9 0.6 4.8 -2.5 1 -7.4 0.7 -7.4 -0.4z"/>
  <path d="M297 294 c0 -1.5 0.7 -2 2.5 -2 2.3 0 2.5 -0.4 2.5 -4.5 0 -3.8 0.3 -4.5 2 -4.5 1.8 0 2 0.7 2 6.5 l0 6.5 -4.5 0 c-3.8 0 -4.5 -0.3 -4.5 -2z"/>
  <path d="M551 281.5 c0 -7.8 0.2 -8.5 2 -8.5 1.8 0 2 0.7 2 8.5 0 7.8 -0.2 8.5 -2 8.5 -1.8 0 -2 -0.7 -2 -8.5z"/>
  <path d="M674 272.7 c0 -0.1 -0.4 -1.7 -0.9 -3.5 -0.9 -3 -0.8 -3.2 1.5 -3.2 2.1 0 2.4 0.5 2.4 3.5 0 2.4 -0.5 3.5 -1.5 3.5 -0.8 0 -1.5 -0.1 -1.5 -0.3z"/>
  <path d="M145.5 250.9 c-1.6 -0.5 -5.8 -0.9 -9.2 -0.8 -3.5 0.1 -6.5 0 -6.8 -0.3 -0.3 -0.2 0.4 -3.1 1.5 -6.2 1.1 -3.2 1.9 -6.1 1.8 -6.4 -0.1 -0.4 0.1 -1.4 0.4 -2.2 0.3 -0.8 1.1 -3.5 1.8 -6 0.6 -2.5 1.6 -5.3 2.1 -6.2 0.5 -1 0.9 -2.9 0.9 -4.2 0 -1.4 0.5 -2.8 1 -3.1 0.6 -0.3 1 -1.9 1 -3.6 0 -1.6 0.3 -2.9 0.8 -2.9 0.4 0 1.4 -1.3 2.3 -2.9 1.5 -2.6 2 -2.8 7.3 -2.6 5.8 0.3 10.1 2.6 9.2 5.1 -0.2 0.6 0.1 2.3 0.9 3.7 1.1 2.1 3.3 8.5 7.5 22 0.8 2.4 0.7 2.7 -1.5 2.7 -1.8 0 -2.5 -0.7 -3 -3 -0.4 -1.6 -1.3 -3 -2 -3 -1.4 0 -2.8 -2.7 -2 -4 0.3 -0.4 -0.1 -1 -0.8 -1.3 -0.8 -0.3 -2.4 -3.9 -3.6 -8 -1.2 -4.1 -2.9 -7.8 -3.7 -8.1 -1.8 -0.7 -4.6 0.3 -3.8 1.5 0.3 0.5 0.1 0.9 -0.5 0.9 -0.6 0 -0.8 0.7 -0.5 1.5 0.4 0.8 0.1 1.5 -0.6 1.5 -0.7 0 -1 0.7 -0.6 1.5 0.3 0.8 0.1 1.5 -0.5 1.5 -0.6 0 -0.8 0.9 -0.4 2 0.4 1.1 0.2 2 -0.4 2 -0.6 0 -0.8 0.7 -0.5 1.5 0.4 0.8 0.1 1.5 -0.5 1.5 -0.6 0 -0.8 0.7 -0.5 1.5 0.4 0.8 0.1 1.5 -0.6 1.5 -0.7 0 -1 0.7 -0.6 1.5 0.3 0.8 0.1 1.5 -0.5 1.5 -0.6 0 -0.8 0.9 -0.4 2 0.4 1.1 0.2 2 -0.4 2 -0.6 0 -0.8 0.7 -0.5 1.5 0.4 0.8 0.1 1.5 -0.6 1.5 -0.6 0 -0.8 0.5 -0.4 1.1 0.3 0.6 0.1 1.5 -0.7 1.9 -1 0.7 -1 1.1 0 2.4 1.8 2.2 10.4 2.2 12.5 0 1.5 -1.4 1.6 -1.4 1.6 0 0 0.9 0.6 1.6 1.3 1.7 2.1 0.2 10.2 -0.3 10.5 -0.5 0.1 -0.2 -0.2 -1.5 -0.8 -3 -0.9 -2.6 -0.9 -2.7 1.7 -2.4 2.6 0.3 2.8 0.7 3.1 5.4 l0.3 5.1 -7.8 0.7 c-4.3 0.4 -8.7 0.9 -9.8 1.1 -1.1 0.2 -3.3 -0.1 -5 -0.6z"/>
  <path d="M740 241.3 c-3.2 -0.6 -7.7 -3.8 -7.7 -5.5 0 -0.7 -1.4 -7 -3.2 -13.9 -1.7 -7 -3.1 -13.7 -3.1 -14.9 0 -1.3 3.2 -11.5 7 -22.9 3.9 -11.3 6.8 -21.1 6.6 -21.7 -0.3 -0.7 0.2 -1.8 1 -2.4 0.8 -0.7 1.4 -1.9 1.4 -2.6 0 -2.3 3.8 -5.4 6.6 -5.4 1.7 0 2.4 0.5 2.1 1.2 -0.2 0.7 -1 3 -1.8 5.1 -0.7 2 -1.6 3.7 -2.1 3.7 -0.4 0 -0.5 0.7 -0.2 1.5 0.4 0.8 0.1 1.5 -0.6 1.5 -0.6 0 -0.9 0.4 -0.6 0.8 0.6 1 -1.4 8.2 -2.3 8.2 -0.3 0 -0.7 1.2 -0.8 2.7 0 1.5 -0.6 2.9 -1.2 3.1 -0.5 0.2 -0.7 1 -0.4 1.8 0.3 0.8 0 1.4 -0.6 1.4 -0.6 0 -0.8 0.7 -0.5 1.5 0.4 0.8 0.1 1.5 -0.6 1.5 -0.6 0 -0.8 0.5 -0.5 1 0.3 0.6 0.2 1 -0.4 1 -0.6 0 -0.8 0.7 -0.5 1.5 0.4 0.8 0.1 1.5 -0.5 1.5 -0.6 0 -0.8 0.7 -0.5 1.5 0.4 0.8 0.2 1.5 -0.4 1.5 -0.6 0 -0.8 0.8 -0.5 1.9 0.2 1 -0.2 2.4 -1 3.2 -0.7 0.8 -1.2 2 -0.9 2.7 0.2 0.6 0 1.2 -0.5 1.2 -0.4 0 -0.9 1.6 -1 3.5 -0.1 1.9 0.3 3.5 0.9 3.5 0.5 0 0.8 0.7 0.4 1.5 -0.3 0.8 -0.1 1.5 0.4 1.5 0.6 0 1 1.3 1 2.9 0 1.6 0.6 3.6 1.3 4.3 0.8 0.7 1.7 3.1 2.1 5.3 1.4 8.5 1.8 9.5 3.3 9.5 0.8 0 3.3 -1.5 5.6 -3.3 2.3 -1.8 4.9 -3.2 5.8 -3 0.8 0.2 2.4 -0.5 3.4 -1.7 1.1 -1.3 3.1 -2 5.3 -2 3.1 0 3.3 0.2 2.1 1.6 -1.9 2.3 -14.9 12.8 -17.6 14.2 -1.2 0.7 -2.5 1.1 -3 1.1 -0.4 -0.1 -1.9 -0.4 -3.3 -0.6z"/>
  <path d="M301.9 219.3 c-0.1 -2.1 -0.4 -5.1 -0.8 -6.7 l-0.6 -2.9 -10.2 0.2 c-9.8 0.2 -10.3 0.1 -10.3 -1.8 0 -1.4 0.6 -2.1 2 -2.1 1.1 0 2 -0.4 2 -0.9 0 -0.5 1 -1.2 2.3 -1.6 2.4 -0.8 18.2 -0.7 21 0.1 1.8 0.6 2.4 3.4 0.7 3.4 -1.4 0 -1.2 3 0.3 6 1.5 3.2 1 8 -0.9 8 -0.8 0 -1.4 0.5 -1.4 1 0 0.6 -0.9 1 -2 1 -1.6 0 -2 -0.7 -2.1 -3.7z"/>
  <path d="M655 200 c0 -1.8 0.6 -3.3 1.5 -3.6 0.8 -0.4 1.5 -1.2 1.5 -2 0 -0.8 1 -1.4 2.1 -1.4 1.9 0 2.1 0.4 1.5 3.8 -0.3 2 -0.6 4.3 -0.6 5 0 0.7 -1.3 1.2 -3 1.2 -2.7 0 -3 -0.3 -3 -3z"/>
  <path d="M264.7 197.3 c-0.4 -0.3 -0.7 -2.6 -0.7 -5 0 -3.6 0.3 -4.3 2 -4.3 1.7 0 2 0.7 2 5 0 3.5 -0.4 5 -1.3 5 -0.8 0 -1.7 -0.3 -2 -0.7z"/>
  <path d="M819 165.6 c0 -2.3 0.2 -2.4 3.5 -1.3 1.9 0.6 3.5 1.6 3.5 2.4 0 0.8 -1.3 1.3 -3.5 1.3 -3 0 -3.5 -0.3 -3.5 -2.4z"/>
  <path d="M264.2 160.3 c0.2 -4.6 0.7 -5.9 2.1 -6.1 1.5 -0.3 1.7 0.5 1.7 5.7 0 5.5 -0.2 6.1 -2 6.1 -1.9 0 -2.1 -0.5 -1.8 -5.7z"/>
  <path d="M803.5 164.1 c-2.7 -1 -5.6 -1.6 -6.2 -1.3 -0.8 0.2 -1.3 -0.5 -1.3 -2.2 0 -2.3 0.4 -2.6 3.5 -2.6 1.9 0 3.5 0.5 3.5 1 0 0.6 1.4 1 3 1 2.7 0 3 0.3 3 3 0 1.7 -0.1 3 -0.2 2.9 -0.2 0 -2.5 -0.9 -5.3 -1.8z"/>
  <path d="M585.6 154 c-9.8 -3.2 -22.1 -5 -33.2 -5 -7.4 0 -8.4 -0.6 -8.4 -4.7 0 -1.2 1.7 -1.4 11.8 -1 17.5 0.8 28.2 2.6 28.2 4.8 0 0.5 1.5 0.9 3.4 0.9 2.1 0 3.6 0.6 4 1.5 0.3 0.8 1.2 1.5 2.1 1.5 0.9 0 1.5 0.9 1.5 2.5 0 1.4 -0.1 2.5 -0.2 2.4 -0.2 0 -4.3 -1.4 -9.2 -2.9z"/>
  <path d="M105 147.5 c0 -3.5 0 -3.5 4.5 -3.5 4.1 0 4.5 0.2 4.5 2.5 0 2 -0.5 2.5 -2.6 2.5 -1.4 0 -3.4 0.5 -4.5 1 -1.7 1 -1.9 0.7 -1.9 -2.5z"/>
  <path d="M273 147.1 c0 -3 0.1 -3.1 4.5 -3.1 4.1 0 4.5 0.2 4.5 2.5 0 2.1 -0.5 2.5 -2.9 2.5 -1.6 0 -3.6 0.3 -4.5 0.6 -1.3 0.5 -1.6 -0.1 -1.6 -2.5z"/>
  <path d="M397.8 149.3 c-6 -0.3 -6.8 -0.6 -6.8 -2.3 0 -1.3 0.7 -2 2 -2 1.1 0 2 -0.4 2 -1 0 -1.3 11.6 -1.3 14.1 0 2.3 1.3 2.5 3 0.4 3 -0.8 0 -1.5 0.7 -1.5 1.5 0 0.8 -0.8 1.4 -1.7 1.3 -1 -0.1 -4.8 -0.3 -8.5 -0.5z"/>
  <path d="M741.8 145.2 c-1.4 -1.5 -5.5 -3.8 -9 -5.2 -3.5 -1.3 -6.5 -2.7 -6.8 -3 -0.3 -0.3 -1 -0.5 -1.5 -0.5 -0.6 0 -4.5 -1.1 -8.8 -2.4 -5.9 -1.9 -7.7 -2.9 -7.7 -4.3 0 -1.3 0.8 -1.8 2.6 -1.8 4.8 0 22.4 5.5 22.4 7 0 0.4 1.6 1 3.5 1.3 5 0.8 8.7 4.6 8.3 8.5 l-0.3 3.1 -2.7 -2.7z"/>
  <path d="M121 145 c0 -1.9 0.7 -2 9.5 -2 8.8 0 9.5 0.1 9.5 2 0 1.9 -0.7 2 -9.5 2 -8.8 0 -9.5 -0.1 -9.5 -2z"/>
  <path d="M169 145 c0 -1.8 0.7 -2 7.5 -2 6.8 0 7.5 0.2 7.5 2 0 1.8 -0.7 2 -7.5 2 -6.8 0 -7.5 -0.2 -7.5 -2z"/>
  <path d="M331 145 c0 -1.6 0.7 -2 3.5 -2 2.8 0 3.5 0.4 3.5 2 0 1.6 -0.7 2 -3.5 2 -2.8 0 -3.5 -0.4 -3.5 -2z"/>
  <path d="M369 145 c0 -1.9 0.7 -2 10.5 -2 9.8 0 10.5 0.1 10.5 2 0 1.9 -0.7 2 -10.5 2 -9.8 0 -10.5 -0.1 -10.5 -2z"/>
  <path d="M469 145 c0 -1.6 0.7 -2 3.5 -2 2.8 0 3.5 0.4 3.5 2 0 1.6 -0.7 2 -3.5 2 -2.8 0 -3.5 -0.4 -3.5 -2z"/>
  <path d="M529 145 c0 -1.8 0.7 -2 6.5 -2 5.8 0 6.5 0.2 6.5 2 0 1.8 -0.7 2 -6.5 2 -5.8 0 -6.5 -0.2 -6.5 -2z"/>
  <path d="M682.5 129.1 c-0.3 -1.2 -1.4 -2.1 -2.3 -2.1 -3.1 0 3.2 -5 7 -5.7 5.7 -0.9 8.8 0.3 8.8 3.2 0 2.3 -0.4 2.5 -4.5 2.5 -3.2 0 -5 0.6 -6.4 2.1 l-1.9 2.1 -0.7 -2.1z"/>
 </g>
 <g fill="#250033">
  <path d="M68.2 358.2 c-2.2 -0.7 -5.2 -2.6 -6.8 -4.3 l-2.9 -3 -0.3 -45.1 c-0.3 -50.6 -0.1 -52.9 6.7 -73.1 3.6 -10.8 12.9 -35.7 15.6 -42.2 0.7 -1.6 4.4 -11.1 8.1 -20.9 7.4 -19.6 9.9 -23.3 17 -25.3 2.6 -0.7 18.3 -1.1 45.9 -1.2 47.8 0 50.2 0.2 55.6 6.8 3.1 3.8 5.7 10.6 4.5 11.8 -1.2 1.2 -7 -2.6 -8.8 -5.7 -0.9 -1.6 -3.2 -3.9 -5 -5 -3.2 -1.9 -4.9 -2 -45 -2 -27.2 0 -41.8 -0.3 -41.8 -1 0 -0.5 -0.7 -1 -1.5 -1 -0.8 0 -1.5 0.6 -1.5 1.4 0 0.8 -0.8 1.7 -1.8 2 -3.7 1.2 -6 5.4 -12.2 21.6 -3.5 9.1 -9.9 25.7 -14.2 37 -8.1 21.1 -12.8 35.5 -14.7 44.8 -0.7 3.3 -1.1 21.5 -1.1 49.1 0 52 -0.8 48.6 12.2 50.5 2.6 0.3 3.2 1.4 1.9 3 -0.7 0.8 -1.1 1.9 -0.8 2.3 0.8 1.2 -4.9 0.9 -9.1 -0.5z"/>
  <path d="M180.5 358.3 c-6.4 -2.3 -9.2 -5.6 -10 -11.6 -1.1 -8.6 -1.6 -25.6 -0.8 -29.2 0.7 -3.2 1.3 -3.9 2.9 -3.7 1 0.2 2.1 0.6 2.4 0.8 0.2 0.3 0.7 7.8 1 16.8 0.4 13.9 0.8 16.7 2.3 18.4 1.6 1.7 7 3.4 11.7 3.6 1.4 0.1 1.6 0.9 1.2 3.4 -0.2 0.9 -4.8 3.3 -6 3.1 -0.4 -0.1 -2.5 -0.8 -4.7 -1.6z"/>
  <path d="M451.2 358.5 c-2.4 -0.7 -5.3 -2.2 -6.4 -3.2 -4.8 -4.2 -4.7 -2.9 -5 -92.5 -0.1 -46.3 -0.1 -89.7 0.1 -96.3 0.3 -13.3 1.5 -17.4 6.4 -20.9 2.8 -2.1 3.9 -2.1 60.5 -2.2 31.7 0 60.2 0.3 63.2 0.8 11.8 1.6 19.9 3.9 28.7 8.3 7.1 3.5 10.3 5.8 14.6 10.5 4.8 5.3 6.7 9 4.7 9 -0.4 0 -3 -2.3 -5.9 -5.1 -2.8 -2.9 -5.1 -4.6 -5.1 -4 0 0.8 -2.2 0 -5.2 -1.9 -2.9 -1.7 -7.2 -4 -9.5 -5.1 -2.4 -1.1 -4.3 -2.3 -4.3 -2.8 0 -0.4 -1.3 -0.6 -3 -0.3 -2 0.3 -3.2 -0.1 -3.6 -1.1 -0.3 -0.9 -1.3 -1.3 -2.5 -1 -1 0.3 -1.9 0.1 -1.9 -0.4 0 -0.5 -1.3 -0.8 -3 -0.5 -1.8 0.3 -3 0 -3 -0.7 0 -0.7 -0.9 -0.9 -2.5 -0.5 -1.4 0.3 -2.5 0.2 -2.5 -0.4 0 -1.7 -5.2 -2.5 -6.1 -1 -0.9 1.6 -7.9 1.2 -7.9 -0.3 0 -1.5 -2.7 -1 -3.4 0.6 -0.5 1.3 -6.9 1.5 -49.1 1.5 l-48.6 0 -2.4 2.5 -2.5 2.4 0 95.8 c0 75.2 0.3 96.3 1.3 98.3 1.5 2.9 4.7 4.6 9.8 5.3 4.9 0.6 5.7 1.2 5.2 4 -0.6 2.9 -4.4 3.3 -11.1 1.2z"/>
  <path d="M271.5 357.1 c-7.5 -3.4 -8 -5.5 -8 -30.6 0 -20 0.2 -22.4 2 -26 3.5 -6.8 6.8 -8 23 -8 l14 0 -0.3 -33.9 c-0.2 -18.6 -0.1 -35.8 0.2 -38.1 0.6 -3.9 0.9 -4.2 3.6 -4.1 l2.9 0.1 -0.2 40.5 -0.2 40.5 -16 0.5 c-9.8 0.3 -16.8 1 -18.1 1.7 -4.1 2.3 -4.6 5.8 -4.2 28 0.3 18 0.5 21.2 2 22.6 2.3 2.3 6.2 3.7 10.4 3.7 5.3 0 3.8 2.5 -1.5 2.6 -2.4 0.1 -4.6 0.6 -5 1.2 -0.4 0.7 -1.9 0.5 -4.6 -0.7z"/>
  <path d="M680.6 344.9 c-7.8 -1.9 -12.6 -7.6 -12.6 -15.2 0 -1.9 2.7 -11.4 6 -21.2 l6.1 -17.8 -3.1 -9.2 c-1.7 -5 -3.2 -10 -3.5 -11.1 -0.2 -1 -3.6 -11.3 -7.5 -22.9 -14.4 -42.9 -14.4 -40.8 0 -84 5.7 -17.1 11.1 -32.6 12.1 -34.5 4.8 -9.6 10.4 -10.1 31.6 -2.9 8.7 3 16.1 5.8 16.4 6.2 0.3 0.4 1 0.7 1.5 0.6 0.5 -0.2 4.1 0.7 7.9 2 7.5 2.3 12.8 6.2 14.5 10.5 1.3 3.5 1.3 8.3 0 9.1 -0.5 0.3 -1 1.4 -1 2.4 0 1.4 -0.6 1.7 -3 1.3 -3 -0.4 -3 -0.4 -2.4 -5.7 0.6 -5.1 0.5 -5.5 -2.7 -8.8 -1.9 -1.9 -4 -3.2 -4.6 -3 -0.7 0.3 -1.3 0 -1.3 -0.6 0 -0.6 -0.6 -0.8 -1.4 -0.5 -0.7 0.3 -2 -0.1 -2.7 -0.8 -0.8 -0.7 -2.7 -1.4 -4.4 -1.5 -1.7 -0.1 -3.7 -1.2 -4.7 -2.5 -1.2 -1.6 -1.8 -1.9 -1.8 -0.8 0 1.2 -0.2 1.2 -0.8 0.2 -0.5 -0.7 -1.6 -1 -2.5 -0.6 -1 0.3 -1.7 0.1 -1.7 -0.5 0 -0.6 -0.7 -0.8 -1.5 -0.5 -0.8 0.4 -1.5 0.1 -1.5 -0.6 0 -0.6 -0.5 -0.8 -1 -0.5 -1.2 0.8 -16.9 -4.3 -18.7 -6 -1.6 -1.7 -6.9 -1.4 -6.5 0.4 0.1 0.7 -0.5 2.5 -1.4 3.9 -1.6 2.4 -22.1 62.5 -22.8 66.5 -0.1 1.1 -1.1 2.4 -2.2 2.8 -1.5 0.6 -1.5 0.8 -0.3 0.8 1.3 0.1 1.7 1.6 2.2 7 0.6 7.4 2.6 14.3 14.2 50.1 4.1 12.4 8.1 24.9 9.1 27.8 2 6.4 1.8 7.7 -5.1 26.7 -7 19.4 -7 23.1 0 25.6 1.9 0.7 3.5 1.7 3.5 2.1 0 0.4 0.6 0.8 1.4 0.8 2.4 0 3.6 2.3 2.2 4.3 -0.7 0.9 -1.5 1.7 -1.7 1.6 -0.2 -0.1 -2.1 -0.5 -4.3 -1z"/>
  <path d="M411.5 309 c-0.3 -0.5 -0.4 -1.4 0 -1.9 0.3 -0.5 0.1 -1.2 -0.4 -1.6 -0.6 -0.3 -0.8 -1.1 -0.5 -1.8 0.2 -0.7 -0.9 -2.5 -2.5 -3.9 -2.6 -2.4 -3.3 -2.6 -6.6 -1.7 -5.3 1.5 -11.2 0.3 -11.9 -2.4 -0.3 -1.2 -0.3 -2.3 0 -2.6 1.2 -1.2 13 -1.2 16.7 -0.1 6.7 2.1 12.1 8.8 11.1 13.8 -0.5 2.5 -1.2 3.2 -3 3.2 -1.2 0 -2.6 -0.4 -2.9 -1z"/>
  <path d="M530.3 299.3 c-3 -0.4 -5.4 -3.5 -3.9 -5 0.3 -0.4 4.5 -0.7 9.3 -0.8 10.9 -0.3 14 -1.1 15 -3.8 0.4 -1.2 0.6 -17 0.4 -35.2 -0.2 -18.1 0 -34.7 0.4 -36.8 0.6 -3.3 1 -3.7 2.9 -3.1 1.1 0.4 2.2 0.8 2.4 0.9 0.2 0.2 0.3 17 0.2 37.5 -0.1 41.1 -0.2 41.9 -6.3 44.5 -1.8 0.8 -3.3 0.9 -3.5 0.4 -0.5 -1.1 -2.9 -1.2 -3.4 0 -0.4 1 -9.1 1.9 -13.5 1.4z"/>
  <path d="M150 249.9 c0.9 -1.6 5.8 -2.9 11.8 -2.9 3.6 0 4.1 -1.6 1.8 -5.3 -2.4 -3.6 -5 -16.5 -3.8 -18.3 0.8 -1.3 4.3 -2.6 4 -1.6 -0.1 0.4 0.3 2.1 0.8 3.7 0.6 1.7 1.2 3.5 1.4 4 0.1 0.6 0.7 2.1 1.2 3.5 0.5 1.4 1.1 3.3 1.3 4.2 0.2 0.9 1.2 4.2 2.1 7.2 1 3.1 1.5 5.8 1.2 6.1 -0.3 0.3 -5.5 0.7 -11.6 0.8 -10.1 0.3 -11 0.2 -10.2 -1.4z"/>
  <path d="M746.6 239.5 c0.5 -1.1 -0.1 -1.5 -2.4 -1.5 -1.7 0 -3.4 -0.4 -3.7 -1 -0.3 -0.5 -0.2 -1 0.4 -1 0.5 0 2.3 -1.2 4 -2.6 1.7 -1.4 3.1 -2.3 3.1 -2.1 0 0.3 1.3 -0.7 2.8 -2.1 4 -3.8 7.1 -6.2 8 -6.2 0.5 0 2.2 -1.5 4 -3.3 2.5 -2.6 4.7 -7.8 11.6 -28.6 10.5 -31 12.7 -34.5 22 -34.2 4.4 0.1 7.6 1 32.4 9.5 19.6 6.7 21.7 7.8 24.2 11.9 3.4 5.5 2 15.7 -2.2 15.7 -3.1 0 -3.3 -0.3 -3.3 -6.9 0 -5.6 -0.3 -6.6 -2.5 -8.2 -1.4 -1 -10.6 -4.6 -20.5 -7.9 -9.9 -3.4 -18.1 -6.5 -18.3 -6.9 -0.2 -0.5 -1.1 -0.7 -2.1 -0.4 -1 0.2 -2.5 -0.3 -3.4 -1.1 -1 -1 -1.8 -1.2 -2.2 -0.6 -0.3 0.5 -1.9 1 -3.4 1 -1.5 0 -3.5 0.8 -4.4 1.8 -0.9 1 -5.6 13.5 -10.6 27.9 -4.9 14.5 -9.6 27.1 -10.3 28.2 -0.8 1.1 -4.2 4.2 -7.6 7 -4.5 3.5 -6.8 4.8 -8.5 4.4 -1.8 -0.4 -1.9 -0.3 -0.7 0.6 1.3 0.9 0.9 1.6 -2.3 4.6 -4.2 3.9 -4.9 4.2 -4.1 2z"/>
  <path d="M272 208.1 c-1.9 -1 -4.4 -3.4 -5.5 -5.2 -1.8 -3.1 -2 -5.2 -2 -26.4 0 -25.1 0.3 -26.8 5.8 -30.9 2.8 -2.1 3.4 -2.1 70.7 -2.1 67 0 67.9 0 70.7 2.1 6 4.4 8.2 15 2.9 14.2 -1.3 -0.2 -2.2 -1.1 -2.4 -2.5 -0.2 -1.3 -0.7 -2.3 -1.2 -2.3 -0.5 0 -1.2 -0.9 -1.5 -2.1 -0.4 -1.1 -1.8 -2.4 -3.1 -2.9 -1.3 -0.5 -2.4 -1.3 -2.4 -1.8 0 -0.4 -2.6 -0.5 -5.7 -0.1 -9.3 1.2 -119.3 1.1 -119.3 -0.1 0 -1.8 -1.8 -1.1 -5.2 2 l-3.3 3 -0.3 17.8 c-0.6 29.3 0.2 31.6 10.7 32.8 5.9 0.6 7.6 1.9 6.5 4.7 -0.8 2.1 -11.3 2 -15.4 -0.2z"/>
 </g>
 <g fill="#000000">
  <path d="M729 439.8 c-25 -8.1 -60.8 -19.7 -79.5 -25.8 -47 -15.1 -50.7 -16.4 -50.3 -17.5 0.1 -0.5 1.7 -0.9 3.3 -0.7 3.3 0.3 26.1 7.4 31 9.7 1.7 0.7 6.4 2.3 10.6 3.4 4.2 1.1 18.4 5.6 31.5 9.9 13.1 4.3 41.1 13.4 62.2 20.2 34.9 11.3 40.6 13.6 37.5 15.3 -0.5 0.2 -21.3 -6.3 -46.3 -14.5z"/>
  <path d="M806.7 443.3 c-0.2 -0.5 3.1 -11.4 7.3 -24.3 4.3 -12.9 12.8 -39 19 -58 14.9 -46.2 25.7 -79.2 34 -104.5 3.8 -11.5 11.2 -34.5 16.5 -51 5.3 -16.5 11.1 -34.4 12.8 -39.7 3 -9.4 4.2 -11.3 5.3 -8.5 0.3 0.8 -3.3 13 -8 27.3 -6.9 21.2 -16.4 50.8 -32.3 100.8 -0.8 2.6 -2.2 6 -2.9 7.5 -0.8 1.4 -1.4 3.2 -1.4 4 0 1.7 -5.6 19.6 -7.4 23.6 -0.8 1.7 -2.6 7.1 -4.1 12 -1.5 5 -4.4 14.2 -6.5 20.5 -2 6.3 -5.8 18 -8.3 26 -18.9 60.1 -21.9 68.1 -24 64.3z"/>
  <path d="M589.5 361 c-0.4 -0.6 1.4 -7.2 3.8 -14.8 6.9 -20.9 18.3 -56 30.7 -94.2 6.2 -19 12 -37 13 -40 2.9 -8.7 32.2 -99.7 38.4 -119.2 5.5 -17.3 7 -20.5 8.2 -17.4 0.5 1.3 -12.8 43.5 -37.1 117.6 -6.2 18.9 -20.5 63 -41.6 128 -5.6 17.3 -10.8 33.6 -11.6 36.3 -1.4 4.6 -2.6 5.7 -3.8 3.7z"/>
  <path d="M953.3 212.6 c-1.7 -1.8 -5.6 -7 -8.8 -11.5 -3.2 -4.4 -6.2 -8.1 -6.6 -8.1 -0.4 0 -3.6 3 -7.2 6.8 -4.6 4.6 -6.9 6.4 -7.6 5.7 -0.6 -0.6 -2.4 -8.3 -4 -17 -7.6 -41.2 -9 -50 -8.2 -50.8 0.6 -0.6 2.3 -0.2 4.3 1 42.8 25.8 57.8 35.4 57.8 36.8 0 0.8 -3.5 2.4 -9 4.1 -4.9 1.5 -9 3.1 -9 3.6 0 0.5 3.4 5.9 7.5 12.1 4.1 6.1 7.5 11.7 7.5 12.4 0 1.1 -11.2 8.3 -12.9 8.3 -0.5 0 -2.2 -1.5 -3.8 -3.4z m8.3 -3.6 l3.3 -2.1 -4.3 -6.7 c-2.4 -3.7 -6.2 -9.4 -8.4 -12.7 -4.9 -7.1 -4.7 -7.3 5.7 -10.4 6.1 -1.9 7.1 -2.5 6 -3.5 -1.4 -1.3 -47.5 -29.6 -48.1 -29.6 -0.5 0 9.2 53.3 9.8 54 0.3 0.2 2.9 -2.1 5.7 -5.3 2.9 -3.2 5.9 -5.7 6.7 -5.7 0.8 0 5.5 5.5 10.4 12 4.8 6.6 9 12 9.3 12 0.3 0 2.1 -0.9 3.9 -2z"/>
  <path d="M876.5 120.8 c-6.6 -2.2 -35.6 -11.6 -64.5 -20.8 -96.8 -31.1 -94 -30.2 -94 -32.3 0 -1.1 0.5 -1.7 1.3 -1.4 0.6 0.2 34.1 11.1 74.4 24.2 40.3 13.1 73 24.2 72.8 24.6 -0.3 0.4 0.5 0.5 1.7 0.1 1.3 -0.3 1.9 -0.1 1.5 0.5 -0.5 0.7 0.1 0.9 1.5 0.5 1.3 -0.3 1.9 -0.1 1.5 0.5 -0.5 0.7 0.1 0.9 1.5 0.5 1.4 -0.3 1.9 -0.1 1.4 0.6 -0.5 0.8 -0.2 1 0.8 0.6 2.2 -0.8 8.8 1.5 8 2.8 -0.4 0.7 -0.2 0.8 0.4 0.4 1.7 -1 6.2 0.4 6.2 2 0 1.9 -0.9 1.8 -14.5 -2.8z"/>
 </g>
</svg>